<svg version="1.1" id="Layer_1" xmlns="http://www.w3.org/2000/svg" xmlns:xlink="http://www.w3.org/1999/xlink" x="0px" y="0px"
	 viewBox="0 0 101.6 159" style="enable-background:new 0 0 101.6 159;" xml:space="preserve">
<style type="text/css">
	.st0{fill:#6D6D6D;}
</style>
<path class="st0" d="M50,12C27.4,12,9,30.4,9,53c0,18.6,12.5,34.4,29.5,39.4v49.1l12,12l12-12v0L57,136l5.5-5.5v0L57,125l5.5-5.5
	V92.1C79,86.8,91,71.3,91,53C91,30.4,72.7,12,50,12z M50,47c-5.5,0-10-4.5-10-10c0-5.5,4.5-10,10-10s10,4.5,10,10
	C60,42.5,55.5,47,50,47z"/>
</svg>
