<svg version="1.1" id="Layer_1" xmlns="http://www.w3.org/2000/svg" xmlns:xlink="http://www.w3.org/1999/xlink" x="0px" y="0px"
	 viewBox="0 0 100 100" style="enable-background:new 0 0 100 100;" xml:space="preserve">
<style type="text/css">
	.st0{fill:#A6A6A6;}
</style>
<g>
	<path class="st0" d="M50,0C22.4,0,0,22.4,0,50s22.4,50,50,50s50-22.4,50-50S77.6,0,50,0z M57.2,50.1c0,7.5-3.1,14.1-9.1,17.8
		c-3.2,1.9-7,3.1-11,3.1c-11.6,0-21-9.4-21-21s9.4-21,21-21c5.4,0,10.2,2,13.8,5.3l-5.5,5.8c-2.2-1.9-5.1-3.1-8.3-3.1
		c-7.2,0-13,5.8-13,13s5.8,13,13,13c4,0,7.6-1.8,10-4.7c0.9-1.1,1.4-2.2,1.4-3.5H37.2v-8h12.5H57C57.2,47.8,57.3,48.9,57.2,50.1z
		 M83.8,51.9h-8.4v8.5h-5.7v-8.5h-8.5v-5.7h8.5v-8.4h5.7v8.4h8.4V51.9z"/>
</g>
</svg>
