<svg version="1.1" id="Layer_1" xmlns="http://www.w3.org/2000/svg" xmlns:xlink="http://www.w3.org/1999/xlink" x="0px" y="0px"
	 viewBox="0 0 100 100" style="enable-background:new 0 0 100 100;" xml:space="preserve">
<style type="text/css">
	.st0{fill:#FFCE06;}
	.st1{fill:#3D1E1E;}
</style>
<path class="st0" d="M50,0c27.6,0,50,22.4,50,50c0,27.6-22.4,50-50,50C22.4,100,0,77.6,0,50C0,22.4,22.4,0,50,0"/>
<g>
	<g>
		<path class="st1" d="M50.1,28.5c-13.4,0-24.2,8.6-24.2,19.1c0,6.8,4.5,12.8,11.2,16.2l-2.3,8.5c-0.1,0.3,0,0.5,0.2,0.7
			c0.1,0.1,0.3,0.2,0.5,0.2c0.1,0,0.3-0.1,0.4-0.2l9.8-6.6c1.4,0.2,2.9,0.3,4.4,0.3c13.4,0,24.2-8.6,24.2-19.1
			C74.3,37,63.5,28.5,50.1,28.5z"/>
	</g>
</g>
</svg>
