<svg version="1.1" id="레이어_1" xmlns="http://www.w3.org/2000/svg" xmlns:xlink="http://www.w3.org/1999/xlink" x="0px"
	 y="0px" viewBox="0 0 100 100" style="enable-background:new 0 0 100 100;" xml:space="preserve">
<style type="text/css">
	.st0{fill:none;}
	.st1{fill:#aaaaaa;}
</style>
<polygon class="st0" points="64.5,40.5 64.5,40.5 76.3,28.7 76.3,28.7 "/>
<path class="st0" d="M75.3,19.7L74.9,17c0-0.1-0.3-0.3-0.4-0.4H25.6c-0.1,0-0.4,0.2-0.4,0.4l-0.8,4.6h49L75.3,19.7z"/>
<path class="st0" d="M36.2,55.3c0,1.1,0.1,2.1,0.4,3.1l16.5-16.5c-1-0.2-2.1-0.4-3.1-0.4C42.4,41.5,36.2,47.7,36.2,55.3z"/>
<polygon class="st0" points="35.2,69.8 23,81.9 23,81.9 35.2,69.8 "/>
<polygon class="st0" points="59.5,45.4 40.1,64.8 40.1,64.8 59.5,45.4 "/>
<path class="st0" d="M29.2,55.3c0-11.4,9.3-20.8,20.8-20.8c3.1,0,6,0.7,8.6,1.9l7.8-7.8H11c-0.3,0-1,0.8-1,2.1v49
	c0,1.3,0.7,2.1,1,2.1h2.2l18-18C29.9,61.3,29.2,58.4,29.2,55.3z"/>
<path class="st1" d="M63.8,55.3C63.8,62.9,57.6,69,50,69c-1.3,0-2.5-0.2-3.7-0.5l-5.4,5.4c2.7,1.3,5.8,2.1,9.1,2.1
	c11.4,0,20.8-9.3,20.8-20.8c0-3.3-0.8-6.3-2.1-9.1l-5.4,5.4C63.6,52.8,63.8,54,63.8,55.3z"/>
<path class="st1" d="M23,81.9l12.1-12.1c0,0,0,0,0,0l4.9-4.9c0,0,0,0,0,0l19.4-19.4c0,0,0,0,0,0l4.9-4.9c0,0,0,0,0,0l11.8-11.8h0
	l7-7h0L97.6,7.4c1.4-1.4,1.4-3.6,0-5C96.2,1,94,1,92.7,2.4L81.1,13.9c-1.2-2.5-3.9-4.3-6.7-4.3H25.6c-3.5,0-6.7,2.7-7.3,6.2l-1,5.8
	H11c-4.4,0-8,4.1-8,9.1v49c0,3.5,1.7,6.5,4.3,8l-4.8,4.8C1,94,1,96.2,2.4,97.6c0.7,0.7,1.6,1,2.5,1s1.8-0.3,2.5-1l8.7-8.7h0L23,81.9
	L23,81.9z M36.6,58.4c-0.2-1-0.4-2.1-0.4-3.1c0-7.6,6.2-13.8,13.8-13.8c1.1,0,2.1,0.1,3.1,0.4L36.6,58.4z M25.1,17
	c0-0.1,0.3-0.4,0.4-0.4h48.9c0.1,0,0.4,0.2,0.4,0.4l0.5,2.7l-1.9,1.9h-49L25.1,17z M13.1,81.9H11c-0.3,0-1-0.8-1-2.1v-49
	c0-1.3,0.7-2.1,1-2.1h55.4l-7.8,7.8c-2.6-1.2-5.5-1.9-8.6-1.9c-11.4,0-20.8,9.3-20.8,20.8c0,3.1,0.7,6,1.9,8.6L13.1,81.9z"/>
<path class="st1" d="M89,28.7c0.3,0,1,0.8,1,2.1v49c0,1.3-0.7,2.1-1,2.1H32.9l-7,7H89c4.4,0,8-4.1,8-9.1v-49c0-3.7-1.9-6.8-4.7-8.3
	l-6.2,6.2H89z"/>
</svg>
