<svg width="32" height="33" viewBox="0 0 32 33" fill="none" xmlns="http://www.w3.org/2000/svg">
<path fill-rule="evenodd" clip-rule="evenodd" d="M16 3.08523C8.31508 3.08523 2.08523 9.31508 2.08523 17C2.08523 24.6849 8.31508 30.9148 16 30.9148C23.6849 30.9148 29.9148 24.6849 29.9148 17C29.9148 9.31508 23.6849 3.08523 16 3.08523ZM1 17C1 8.71573 7.71573 2 16 2C24.2843 2 31 8.71573 31 17C31 25.2843 24.2843 32 16 32C7.71573 32 1 25.2843 1 17Z" fill="#808080" stroke="#808080" stroke-miterlimit="10" stroke-linejoin="round"/>
<path d="M15.0127 20.83H17.2347C16.8607 17.552 20.7767 16.364 20.7767 13.152C20.7767 10.578 19.0167 9.126 16.4427 9.126C14.6167 9.126 13.1427 10.006 12.0647 11.238L13.4947 12.536C14.2207 11.722 15.1227 11.194 16.1567 11.194C17.5427 11.194 18.3127 12.096 18.3127 13.328C18.3127 15.726 14.4847 17.134 15.0127 20.83ZM16.1567 26.286C17.1027 26.286 17.8507 25.56 17.8507 24.526C17.8507 23.47 17.1027 22.722 16.1567 22.722C15.1887 22.722 14.4627 23.47 14.4627 24.526C14.4627 25.56 15.1887 26.286 16.1567 26.286Z" fill="#808080"/>
</svg>
