<svg version="1.1" id="레이어_1" xmlns="http://www.w3.org/2000/svg" xmlns:xlink="http://www.w3.org/1999/xlink" x="0px"
	 y="0px" viewBox="0 0 100 100" style="enable-background:new 0 0 100 100;" xml:space="preserve">
<style type="text/css">
	.st0{fill:#4D4D4D;}
</style>
<path class="st0" d="M27.1,26.2L27.1,26.2c-2.6,0-4.7-2.1-4.7-4.7v-11c0-2.6,2.1-4.7,4.7-4.7h0c2.6,0,4.7,2.1,4.7,4.7v11
	C31.8,24.1,29.7,26.2,27.1,26.2z"/>
<path class="st0" d="M72.9,26.2L72.9,26.2c-2.6,0-4.7-2.1-4.7-4.7v-11c0-2.6,2.1-4.7,4.7-4.7h0c2.6,0,4.7,2.1,4.7,4.7v11
	C77.7,24.1,75.5,26.2,72.9,26.2z"/>
<path class="st0" d="M86.8,15.9h-5.1v5.5c0,4.8-3.9,8.7-8.7,8.7s-8.7-3.9-8.7-8.7v-5.5H35.8v5.6c0,4.8-3.9,8.7-8.7,8.7
	s-8.7-3.9-8.7-8.7v-5.6h-5.1c-6.3,0-11.5,5.2-11.5,11.5v55.2c0,6.3,5.2,11.5,11.5,11.5h73.6c6.3,0,11.5-5.2,11.5-11.5V27.4
	C98.3,21.1,93.1,15.9,86.8,15.9z M91.3,82.7c0,2.5-2,4.5-4.5,4.5H13.2c-2.5,0-4.5-2-4.5-4.5V39.4h82.6V82.7z"/>
<rect x="16.8" y="47.3" class="st0" width="18.7" height="13.7"/>
<rect x="40.2" y="47.3" class="st0" width="19.6" height="13.7"/>
<rect x="64.5" y="47.3" class="st0" width="18.7" height="13.7"/>
<rect x="16.8" y="65.7" class="st0" width="18.7" height="13.7"/>
<rect x="40.2" y="65.7" class="st0" width="19.6" height="13.7"/>
<rect x="64.5" y="65.7" class="st0" width="18.7" height="13.7"/>
</svg>
