<svg version="1.1" id="레이어_1" xmlns="http://www.w3.org/2000/svg" xmlns:xlink="http://www.w3.org/1999/xlink" x="0px"
	 y="0px" viewBox="0 0 100 100" style="enable-background:new 0 0 100 100;" xml:space="preserve">
<style type="text/css">
	.st0{fill:#4D4D4D;}
</style>
<g>
	<path class="st0" d="M75.6,18.7c-3.2,0-5.7,2.6-5.7,5.7c0,3.2,2.6,5.7,5.7,5.7c3.2,0,5.7-2.6,5.7-5.7
		C81.3,21.3,78.7,18.7,75.6,18.7z"/>
	<path class="st0" d="M97.6,30.3c-0.2-5.1-1-8.6-2.2-11.6c-1.2-3.2-3.1-6.1-5.5-8.5c-2.4-2.4-5.3-4.3-8.5-5.5c-3-1.2-6.5-2-11.6-2.2
		C64.6,2.2,63,2.1,50,2.1S35.4,2.2,30.3,2.4c-5.1,0.2-8.6,1-11.6,2.2c-3.2,1.2-6.1,3.1-8.5,5.5c-2.4,2.4-4.3,5.3-5.5,8.5
		c-1.2,3-2,6.5-2.2,11.6C2.2,35.4,2.1,37,2.1,50s0.1,14.6,0.3,19.7c0.2,5.1,1,8.6,2.2,11.6c1.2,3.2,3.1,6.1,5.5,8.5
		c2.4,2.4,5.3,4.3,8.5,5.5c3,1.2,6.5,2,11.6,2.2c5.1,0.2,6.7,0.3,19.7,0.3c13,0,14.6-0.1,19.7-0.3c5.1-0.2,8.6-1,11.6-2.2
		c6.4-2.5,11.5-7.6,14-14c1.2-3,2-6.5,2.2-11.6c0.2-5.1,0.3-6.7,0.3-19.7S97.8,35.4,97.6,30.3z M89,69.3c-0.2,4.7-1,7.2-1.6,8.9
		c-1.6,4.2-4.9,7.5-9.1,9.1C76.5,88,74,88.8,69.3,89c-5,0.2-6.6,0.3-19.3,0.3c-12.8,0-14.3-0.1-19.3-0.3c-4.7-0.2-7.2-1-8.9-1.7
		c-2.1-0.8-4-2-5.5-3.6c-1.6-1.5-2.8-3.4-3.6-5.5C12,76.5,11.2,74,11,69.3c-0.2-5.1-0.3-6.6-0.3-19.3s0-14.3,0.3-19.3
		c0.2-4.7,1-7.2,1.7-8.9c0.8-2.1,2-4,3.6-5.5c1.5-1.6,3.4-2.8,5.5-3.6c1.7-0.7,4.2-1.4,8.9-1.6c5.1-0.2,6.6-0.3,19.3-0.3
		s14.3,0.1,19.3,0.3c4.7,0.2,7.2,1,8.9,1.6c2.1,0.8,4,2,5.5,3.6c1.6,1.5,2.8,3.4,3.6,5.5c0.7,1.7,1.4,4.2,1.6,8.9
		c0.2,5,0.3,6.6,0.3,19.3S89.2,64.3,89,69.3z"/>
	<path class="st0" d="M50,25.4c-13.6,0-24.6,11-24.6,24.6s11,24.6,24.6,24.6s24.6-11,24.6-24.6S63.6,25.4,50,25.4z M50,66
		c-8.8,0-16-7.1-16-16c0-8.8,7.1-16,16-16c8.8,0,16,7.1,16,16C66,58.8,58.8,66,50,66z"/>
</g>
</svg>
