<svg version="1.1" id="레이어_1" xmlns="http://www.w3.org/2000/svg" xmlns:xlink="http://www.w3.org/1999/xlink" x="0px"
	 y="0px" viewBox="0 0 100 100" style="enable-background:new 0 0 100 100;" xml:space="preserve">
<style type="text/css">
	.st0{fill:none;stroke:#4D4D4D;stroke-width:7;stroke-miterlimit:10;}
	.st1{fill:#4D4D4D;}
</style>
<g>
	<path class="st0" d="M30.2,40.3V27.5c0-11,8.9-19.8,19.8-19.8s19.8,8.9,19.8,19.8v12.9"/>
	<path class="st0" d="M77.7,92.4H22.3c-4.1,0-7.4-3.8-7.4-8.5L13,47.7c0-4.7,3.3-8.5,7.4-8.5h59.3c4.1,0,7.4,3.8,7.4,8.5l-1.9,36.1
		C85.1,88.5,81.8,92.4,77.7,92.4z"/>
	<path class="st1" d="M57.3,59.3c0-4-3.2-7.3-7.3-7.3s-7.3,3.2-7.3,7.3c0,3.1,2,5.8,4.7,6.8L45.3,77c-0.3,1.4,0.7,2.5,2.1,2.5h5.2
		c1.4,0,2.3-1.1,2.1-2.5l-2.1-10.9C55.3,65.1,57.3,62.4,57.3,59.3z"/>
</g>
</svg>
