<svg version="1.1" id="Layer_1" xmlns="http://www.w3.org/2000/svg" xmlns:xlink="http://www.w3.org/1999/xlink" x="0px" y="0px"
	 viewBox="0 0 639.5 127.1" style="enable-background:new 0 0 639.5 127.1;" xml:space="preserve">
<path d="M194.7,32.7c0,3-0.4,6.3-1.2,9.8c-0.8,3.6-1.6,5.4-2.3,5.4c-0.6,0-0.9-0.3-0.9-0.9c0-0.2,0.1-0.4,0.2-0.8
	c1.6-4,2.3-8.4,2.3-13c0-7.3-2.2-13.1-6.5-17.5c-4.3-4.4-10-6.6-17.1-6.6c-9.5,0-19.3,3.1-29.4,9.4c8.1,6,12.1,13,12.1,21
	c0,12.8-8.7,20.5-26.2,22.9c14.3,5,21.5,14.2,21.5,27.5c0,9.9-4.2,18.6-12.6,26c-8.4,7.4-18.3,11.1-29.6,11.1
	c-5.4,0-9.7-1.4-12.9-4.2s-4.8-6.6-4.8-11.4c0-7.4,3.4-14.7,10.1-21.9c6.8-7.2,13.6-10.8,20.4-10.8c3.8,0,6.9,1.2,9.3,3.6
	c2.4,2.4,3.6,5.5,3.6,9.2c0,2.2-0.7,5-2.1,8.4c-1.4,3.3-2.5,5-3.4,5c-0.6,0-0.9-0.2-0.9-0.7c0-0.2,0.1-0.6,0.3-1
	c3-4.4,4.5-8.3,4.5-11.8c0-3.3-1.1-5.9-3.2-7.9c-2.1-2-4.9-3-8.4-3c-6.5,0-12.8,3.4-19,10.3c-6.2,6.8-9.3,13.8-9.3,21
	c0,3.8,1.3,7,3.9,9.5c2.6,2.5,5.8,3.8,9.6,3.8c8.8,0,16.8-4.3,24.2-12.8c7.3-8.5,11-17.9,11-28.2c0-9.6-4.6-16.6-13.8-21.1l-5,0.6
	c-1.4,0.2-2.8,0.3-4.1,0.3c-4.4,0-6.6-0.7-6.6-2.2c0-1,1.8-1.6,5.4-1.6c2.6,0,6,0.5,10.3,1.6c6-1.8,10.7-5.1,14.2-9.7
	c3.5-4.6,5.2-9.9,5.2-15.9c0-5.8-2.2-11-6.6-15.6c-12.6,9.7-24.5,26.1-35.6,49.2c-6.8,14.2-13.1,24.5-18.8,30.9
	c-5.5,6.2-13.4,11.8-23.6,16.8c-12,5.9-22.8,8.8-32.2,8.8c-7.7,0-14.1-1.8-19.2-5.3c-5.1-3.5-7.7-8-7.7-13.3c0-2.9,0.9-5.5,2.6-7.6
	c1.8-2.1,3.8-3.2,6.3-3.2c3.5,0,5.3,2,5.3,5.9c0,2-0.6,3.6-1.8,5c-1.2,1.4-2.6,2.1-4.4,2.1c-3,0-4.4-1.6-4.3-4.7
	c0.1-1.3-0.1-1.9-0.3-1.9c-0.9,0-1.4,1.5-1.4,4.6c0,4.8,2.3,8.7,7,11.9c4.7,3.2,10.6,4.7,17.7,4.7c12.6,0,24-4.7,34.3-14
	c4.4-4,8.3-8.2,11.6-12.6c3.3-4.4,10.8-15.6,22.5-33.5c5.7-8.6,12.5-17.3,20.5-26.2c8-8.9,14.7-15.2,20.1-18.9
	c-9.1-7.7-22.3-11.5-39.5-11.5c-24.3,0-45.4,8.8-63.4,26.3C18.2,48.5,10.8,62,10.8,74.8c0,6.4,2.1,11.6,6.2,15.4
	c4.1,3.8,9.8,5.7,16.8,5.7c11.6,0,23.5-5.6,35.9-16.7C82,68.1,88.2,57.3,88.2,46.8c0-8.3-4.3-12.5-12.9-12.5
	c-8.6,0-17.8,4.8-27.6,14.3C38,58.1,33.1,67,33.1,75.4c0,2.1,0.7,3.9,2.1,5.3c1.4,1.5,3,2.2,4.8,2.2c1,0.2,1.5,0.4,1.5,0.7
	c0,0.5-0.5,0.8-1.6,0.8c-2.8,0-5.1-1.3-7-3.8c-1.9-2.5-2.8-5.6-2.8-9.2c0-8.9,4.9-17.6,14.8-26.1C54.6,37,64.7,32.7,75,32.7
	c9.9,0,14.8,4.6,14.8,13.7c0,11.2-6.3,22.4-18.9,33.8c-12.6,11.4-25,17.1-37.3,17.1c-8,0-14.4-2.4-19.2-7.2
	c-4.8-4.8-7.2-11.2-7.2-19.3c0-16.3,9.2-31.1,27.6-44.6c18.4-13.4,38.7-20.2,61-20.2c16.7,0,31,3.8,42.6,11.3
	c10.5-6.6,20.7-9.8,30.6-9.8c7.7,0,13.9,2.3,18.6,6.9C192.3,19.1,194.7,25.2,194.7,32.7z"/>
<path d="M203.8,95.5c0,0.2-0.5,0.9-1.6,2.2l-3.7,4.7c-11.9,14.7-22.1,22.1-30.7,22.1c-4,0-7.4-1.5-10.2-4.4
	c-2.7-2.9-4.1-6.5-4.1-10.9c0-10.4,7.2-19.5,21.7-27.4c7.6-4.1,13.8-6.2,18.6-6.2c2.1,0,3.8,0.6,5.3,1.9c1.5,1.2,2.2,2.7,2.2,4.5
	c0,4.1-2.7,7.7-8.1,10.6c-5.4,2.9-14.4,5.6-27.1,8.2c-3.9,5.9-5.9,10.9-5.9,14.8c0,4.9,2.7,7.4,8,7.4c9.1,0,20.2-8.9,33.4-26.6
	c0.7-0.9,1.3-1.4,1.7-1.4C203.6,95.1,203.8,95.2,203.8,95.5z M196.5,79.5c0-1.8-1-2.8-3-2.8c-3.1,0-7.1,2.1-12,6.3
	c-5,4.2-9.9,9.7-14.6,16.4c8.3-2.1,15.3-5.1,21.1-9C193.6,86.6,196.5,83,196.5,79.5z"/>
<path d="M232.9,61.9c0,2.3-3.6,6.9-10.8,13.7c-0.3,1.8-0.5,3.3-0.5,4.7c0,3.3,1.5,8.6,4.6,15.9c1.6,3.6,2.3,6.7,2.3,9.2
	c0,5.2-2.5,9.7-7.6,13.5c-5,3.8-11,5.7-17.9,5.7c-3.9,0-7-1.1-9.4-3.3c-2.3-2.2-3.5-5.2-3.5-8.9c0-4.3,1.5-8.5,4.6-12.6
	c3.1-4.1,6.3-6.1,9.5-6.1c0.6,0,1.1,0.1,1.6,0.3l6.9-8.5c2.1-2.5,4.8-5.9,8.3-10.3c1-4,2.5-7.5,4.5-10.4c2-2.9,4-4.3,6-4.3
	C232.4,60.4,232.9,60.9,232.9,61.9z M220.9,96c0-1.7-0.1-3.4-0.2-5.1c-0.1-1.7-0.2-4.1-0.2-7.3c0-2.6,0.1-4.7,0.3-6.5
	c-3.2,4.1-7.9,9.8-14,17.3c1.1,0.9,1.6,2,1.6,3.4c0,3.4-2.8,5.7-8.4,6.9c-2.2,0.5-4.2,1.7-5.8,3.7c-1.6,1.9-2.5,4-2.5,6.1
	c0,2.3,0.8,4.2,2.5,5.8c1.7,1.6,3.7,2.3,6.2,2.3c4.8,0,9.4-2.8,13.8-8.4C218.7,108.5,220.9,102.4,220.9,96z"/>
<path d="M270,75.6l-0.7,1.3H258l-19.2,32.9c-2.4,4-3.5,7.1-3.5,9.5c0,2.6,1.4,3.9,4.1,3.9c5.2,0,14.1-9.1,26.5-27.4
	c0.4-0.6,0.7-0.9,1-0.9c0.3,0,0.5,0.2,0.5,0.5c-0.1,0.2-0.3,0.6-0.9,1.4l-3.7,5.1c-10.8,15-19,22.6-24.5,22.6c-2.7,0-5-1-6.8-2.9
	c-1.8-2-2.7-4.4-2.7-7.3c0-3.5,1.5-7.8,4.6-12.9l14.5-24.3h-8.8l0.9-1.3h8.6l10.1-16.7c1.7,0.5,3.4,0.7,4.9,0.7c1.6,0,3.3-0.2,5-0.7
	l-9.9,16.7H270z"/>
<path d="M548.4,36.2c0,2.2-0.2,4.4-0.7,6.5c-0.5,2.1-1,3.1-1.5,3.1c-0.4,0-0.6-0.2-0.6-0.5c0.1-0.2,0.1-0.5,0.2-0.7
	c0.9-2,1.3-4.7,1.3-8.1c0-7.7-3-14.1-9.1-19.5c-6.1-5.3-13.5-8-22.4-8c-14.2,0-28.8,7-43.7,20.9c-5.9,5.5-10.9,10.8-15.2,16
	c-4.1,4.9-12.1,15.3-24,31.1c-17.6,23.3-32,37.9-43.3,43.7c-5.1,2.6-8.3,3.9-9.8,3.9c-0.3,0-0.5-0.2-0.5-0.6
	c0.1-0.1,0.7-0.5,1.8-1.4c5.6-4.2,10.1-9.8,13.5-16.9c3.1-6.5,8.7-21.9,16.7-46.2c6.8-20.7,14.7-35.6,23.5-44.6
	c0.3-0.3,0.5-0.6,0.5-0.9c-0.7-0.2-2.4,1-5.1,3.7c-8.6,8.5-18.7,23.8-30.2,45.9c-7.1,13.6-13.4,23.9-18.8,30.9
	c-5.4,7-11.8,13.1-19.2,18.4c-12.2,8.7-24.5,13.1-36.8,13.1c-8,0-14.5-1.7-19.6-5.1c-5-3.4-7.6-7.7-7.6-13c0-3,0.9-5.5,2.6-7.6
	c1.7-2,3.9-3.1,6.5-3.1c3.7,0,5.6,1.8,5.6,5.5c0,1.9-0.6,3.5-1.8,4.9c-1.2,1.4-2.7,2-4.4,2c-2.8,0-4.3-1.6-4.3-4.7
	c0-1.2-0.2-1.7-0.7-1.7c-0.9,0-1.4,1.6-1.4,4.7c0,4.7,2.3,8.6,7,11.6c4.7,3,10.7,4.5,18.1,4.5c15,0,29.8-7.8,44.2-23.4
	c5.8-6.3,10.7-12.4,14.8-18.3c4-6,12.1-18.9,24.1-38.9c5.1-8.5,10.8-16.1,17.1-23c6.4-6.9,10.9-10.4,13.6-10.4
	c0.4,0,0.6,0.2,0.6,0.5c-0.1,0.2-0.2,0.5-0.3,0.7c-5.4,5.9-10.2,17-14.5,33.2c-6.4,23.9-12.5,41.3-18.2,52.2
	c-5.6,10.6-12.9,18.6-21.8,24.1c-0.2,0.1-0.3,0.2-0.3,0.3c0.1,0.1,0.2,0.1,0.3,0.2c1.3,0,4.5-1.8,9.7-5.5
	c6.2-4.4,11.9-9.6,17.2-15.7c5.2-6.1,14.7-18.6,28.5-37.5c9.7-13.4,17.4-23.1,23.2-29.3c5.7-6.2,12.1-11.6,19-16.4
	c10.9-7.3,21.8-11,32.9-11c9.7,0,17.6,2.8,23.9,8.4C545.3,20.4,548.4,27.5,548.4,36.2z M411.6,31.4c0,1.3-1.6,3.8-4.9,7.4
	c-5,5.6-9.7,8.4-14.3,8.4c-3.2,0-5.8-1.2-8-3.5c-2.2-2.3-3.3-5.2-3.3-8.6c0-3.3,1.2-7.2,3.5-11.8c2.9-5.8,4.4-9.8,4.4-12.2
	c0-2.9-1.4-5.3-4.1-7.1c-2.8-1.8-6.4-2.7-10.9-2.7c-12.8,0-24.9,5.2-36.2,15.5c-11.3,10.4-16.9,21.4-16.9,33.1c0,6,1.9,11,5.6,14.8
	c3.7,3.8,8.5,5.7,14.3,5.7c5.2,0,10.4-1.5,15.8-4.4c5.3-3,9.6-6.8,12.9-11.4c0.2-0.3,0.4-0.4,0.5-0.4c0.5,0,0.7,0.3,0.7,0.8
	c0,1.2-1.8,3.4-5.5,6.6c-7.6,6.8-15.8,10.3-24.7,10.3c-6.2,0-11.3-2-15.2-6c-3.9-4-5.9-9.3-5.9-15.7c0-12.5,5.8-24,17.3-34.4
	C348.1,5.2,360.8,0,374.5,0c5.6,0,10.1,1.4,13.2,4.2c3.2,2.8,4.8,6.7,4.8,11.7c0,3.7-1.8,9.3-5.5,16.8c-1.3,2.6-1.9,4.7-1.9,6.3
	c0,4.4,2.4,6.6,7.1,6.6c2.8,0,6-1.4,9.5-4.1c3.5-2.7,6.3-6,8.4-10c0.3-0.6,0.6-0.9,0.9-0.9C411.4,30.7,411.6,30.9,411.6,31.4z
	 M506.9,12.8c0,0.3-0.8,0.8-2.3,1.6c-6.7,3.6-12.6,8.7-17.8,15.5c-5.1,6.7-11,17.1-17.5,31c-9.6,20.3-18.1,34.8-25.6,43.7
	c-7.5,8.9-16.8,15.2-27.8,19.1c5.1,0.8,9.1,1.2,11.8,1.2c8.9,0,16-1.9,21.3-5.7c5.3-3.8,12.8-12.2,22.6-25.4
	c0.6-0.8,1.1-1.2,1.5-1.2c0.2,0.1,0.3,0.2,0.3,0.5c0,0.6-2.7,4.3-8.1,11.1c-6.6,8.4-12.5,14.1-17.8,17.2c-5.2,3.1-11.6,4.6-19.2,4.6
	c-4.7,0-9.8-0.5-15.3-1.6c-3.9,1.3-7.8,1.9-11.8,1.9c-3.1,0-4.6-0.6-4.6-1.8c0-1.4,2.1-2.2,6.4-2.2c2.4,0,5.5,0.3,9.3,0.9h1.1
	c6.1-2.2,11.3-5.7,15.5-10.4c4.2-4.7,9.3-12.8,15.2-24c12-22.8,21.6-39,28.6-48.5c6.8-9.1,14.9-16.9,24.4-23.3
	c4.8-3.2,7.9-4.7,9.2-4.7C506.7,12.3,506.9,12.5,506.9,12.8z"/>
<path d="M515,95.5c0,0.2-0.5,0.9-1.6,2.2l-3.7,4.7c-11.9,14.7-22.1,22.1-30.7,22.1c-4,0-7.4-1.5-10.2-4.4c-2.7-2.9-4.1-6.5-4.1-10.9
	c0-10.4,7.2-19.5,21.7-27.4c7.6-4.1,13.8-6.2,18.6-6.2c2.1,0,3.8,0.6,5.3,1.9c1.5,1.2,2.2,2.7,2.2,4.5c0,4.1-2.7,7.7-8.1,10.6
	c-5.4,2.9-14.4,5.6-27.1,8.2c-3.9,5.9-5.9,10.9-5.9,14.8c0,4.9,2.7,7.4,8,7.4c9.1,0,20.2-8.9,33.4-26.6c0.7-0.9,1.3-1.4,1.7-1.4
	C514.9,95.1,515,95.2,515,95.5z M507.7,79.5c0-1.8-1-2.8-3-2.8c-3.1,0-7.1,2.1-12,6.3c-5,4.2-9.9,9.7-14.6,16.4
	c8.3-2.1,15.3-5.1,21.1-9C504.9,86.6,507.7,83,507.7,79.5z"/>
<path d="M584.2,95.4c0,1.2-4.2,6.8-12.5,16.8c-6.9,8.2-12.2,12.3-16.2,12.3c-2.6,0-4.8-1-6.5-3c-1.8-2-2.6-4.5-2.6-7.4
	c0-2.6,0.5-5,1.6-7.2c1.1-2.2,3.8-6.6,8.3-13.2c4.7-6.9,7-11.3,7-13.2c0-2.4-1.2-3.5-3.7-3.5c-8.4,0-21.4,15.6-38.8,46.8
	c-2.8-0.2-4.5-0.3-5.1-0.3c-2,0-3.9,0.1-5.7,0.3l13.5-21.3c7.7-12.2,11.5-19.8,11.5-22.9c0-1.7-0.7-2.6-2.2-2.6
	c-2.9,0-8.7,6.2-17.4,18.6c-0.5,0.7-0.9,1.2-1.2,1.2c-0.3,0-0.5-0.2-0.5-0.5c0.1-0.3,0.2-0.5,0.3-0.7l1.6-2.2
	c8.8-11.8,14.8-17.7,17.8-17.7c2,0,3.6,0.9,5,2.7c1.4,1.8,2.1,3.9,2.1,6.4c0,3.7-2.2,8.8-6.5,15.4c6.8-9.4,12-15.8,15.7-19.2
	c3.7-3.5,7-5.2,10.1-5.2c2.5,0,4.7,1,6.4,3.1c1.7,2.1,2.6,4.6,2.6,7.7c0,3.9-2.6,9.8-7.9,17.7c-5.4,8.1-8.1,13.3-8.1,15.5
	c0,2.4,1.2,3.5,3.5,3.5c5.1,0,14-9.1,26.5-27.4c0.3-0.6,0.6-0.9,0.9-0.9C584,94.9,584.2,95.1,584.2,95.4z"/>
<path d="M639.5,95.4c0,1.3-4.2,6.9-12.5,16.8c-6.9,8.2-12.4,12.3-16.4,12.3c-2.5,0-4.7-1-6.4-3.1c-1.8-2-2.6-4.5-2.6-7.4
	c0-2.2,1.1-5.4,3.4-9.4l-1.7,2.3c-5.3,6.8-9.2,11.3-11.7,13.6c-2.7,2.6-5.3,3.9-7.7,3.9c-2.5,0-4.7-1-6.4-3c-1.7-2-2.6-4.4-2.6-7.3
	c0-3.3,1.3-7.2,3.9-11.5l15.7-26.4c2,0.4,3.5,0.6,4.6,0.6s3-0.2,5.9-0.6l-20.5,33.8c-2.1,3.5-3.1,6.5-3.1,9.2c0,2.6,1.1,3.9,3.3,3.9
	c5.8,0,15.1-10.8,28-32.5l8.5-14.3c1.8,0.4,3.3,0.6,4.5,0.6c1.4,0,3.5-0.2,6.1-0.6l-13.8,22.5c-6.6,10.7-9.8,17.6-9.8,20.6
	c0,2.5,1.2,3.7,3.5,3.7c4.6,0,12.1-7.3,22.5-21.8l2.7-3.7l1.6-1.9c0.3-0.6,0.6-0.9,0.9-0.9C639.3,94.9,639.5,95.1,639.5,95.4z"/>
</svg>
