<svg version="1.1" id="Layer_1" xmlns="http://www.w3.org/2000/svg" xmlns:xlink="http://www.w3.org/1999/xlink" x="0px" y="0px"
	 viewBox="0 0 422.3 127" style="enable-background:new 0 0 422.3 127;" xml:space="preserve">
<path d="M123,0.6c0,0.7-1.7,1.9-5.2,3.4c-3.5,1.5-7.5,2.9-11.9,4.2c-10.5,7.5-20.9,20.9-31.2,40.2l-1,1.9c0.5,0.1,1.1,0.1,1.8,0.1
	c5.2,0,9.9-1.6,14.3-4.8c4.3-3.2,7-7,7.9-11.5c0.2-0.7,0.4-1,0.7-1c0.3,0,0.4,0.2,0.4,0.5c0,2.6-1.4,5.5-4.2,8.8c-5,6-11.4,9-19.3,9
	c-0.8,0-1.5,0-2.2-0.1l-1.8,3.5C68,60.8,65.3,65.2,63,68c-2.2,2.7-5.2,5.4-9,8.1c-10.6,7.5-21.5,11.3-32.6,11.3
	c-6.2,0-11.3-1.3-15.4-3.9c-4-2.6-6-6-6-10.1c0-2.2,0.6-4.1,1.9-5.6c1.2-1.5,2.8-2.3,4.5-2.3c2.7,0,4.1,1.4,4.1,4.3
	c0,1.4-0.5,2.6-1.4,3.5c-0.9,1-2,1.5-3.3,1.5c-2,0-3-0.9-3-2.8v-1.3c0-0.4-0.1-0.6-0.4-0.6c-0.8,0-1.1,1.1-1.1,3.2
	c0,3.6,1.8,6.7,5.3,9.2s8,3.7,13.2,3.7c12.7,0,24.2-6.4,34.3-19.1c3-3.8,7-9.6,12.1-17.4c-7.2-3.1-10.8-8.2-10.8-15.1
	c0-8.4,4.8-14.7,14.3-18.8c4.8-2.1,12.4-4,22.7-5.8l7-1.1l6-1.3c2.3-1.7,5.2-3.4,8.9-5c3.7-1.7,6.2-2.5,7.6-2.5
	C122.6,0,123,0.2,123,0.6z M103.9,8.7c-1,0.2-2.4,0.5-4.3,1c-1.6,0.4-3.8,1-6.8,1.7c-10.3,2.4-18.5,6-24.6,10.8
	C62.1,27,59,32.1,59,37.6c0,5.3,2.6,9.1,7.8,11.3C78,31.1,90.4,17.7,103.9,8.7z"/>
<path d="M136.4,64.6c0,0.9-3.1,5-9.2,12.3c-5,6-9,9-11.9,9c-1.9,0-3.5-0.7-4.8-2.2c-1.3-1.5-1.9-3.3-1.9-5.4c0-1.9,0.4-3.7,1.2-5.3
	c0.8-1.6,2.8-4.8,6.1-9.7c3.4-5.1,5.1-8.3,5.1-9.7c0-1.7-0.9-2.6-2.7-2.6c-6.2,0-15.7,11.4-28.5,34.3c-2.1-0.2-3.3-0.3-3.7-0.3
	c-1.5,0-2.9,0.1-4.2,0.3l9.9-15.6c5.6-9,8.4-14.5,8.4-16.8c0-1.3-0.5-1.9-1.6-1.9c-2.2,0-6.4,4.5-12.8,13.6
	c-0.4,0.6-0.7,0.8-0.9,0.9c-0.2,0-0.3-0.1-0.4-0.4c0-0.2,0.1-0.4,0.3-0.5l1.2-1.6c6.5-8.7,10.8-13,13.1-13c1.4,0,2.7,0.7,3.7,2
	c1,1.3,1.5,2.9,1.5,4.7c0,2.7-1.6,6.5-4.8,11.3c5-6.9,8.8-11.6,11.5-14.1c2.7-2.5,5.2-3.8,7.4-3.8c1.9,0,3.4,0.8,4.7,2.3
	c1.3,1.5,1.9,3.4,1.9,5.6c0,2.8-1.9,7.2-5.8,13c-4,6-6,9.8-6,11.4c0,1.7,0.9,2.6,2.6,2.6c3.8,0,10.3-6.7,19.5-20.1
	c0.2-0.4,0.4-0.6,0.6-0.6C136.3,64.2,136.4,64.3,136.4,64.6z"/>
<path d="M157.8,40c0,1.7-2.6,5-7.9,10c-0.3,1.3-0.4,2.5-0.4,3.4c0,2.4,1.1,6.3,3.4,11.7c1.1,2.7,1.7,4.9,1.7,6.7
	c0,3.8-1.8,7.1-5.5,9.9c-3.7,2.8-8.1,4.2-13.1,4.2c-2.9,0-5.2-0.8-6.9-2.4c-1.7-1.6-2.6-3.8-2.6-6.6c0-3.2,1.1-6.2,3.4-9.2
	c2.3-3,4.6-4.5,7-4.5c0.4,0,0.8,0.1,1.1,0.3l5.1-6.2c1.5-1.8,3.5-4.3,6.1-7.5c0.7-3,1.8-5.5,3.3-7.6c1.5-2.1,2.9-3.2,4.4-3.2
	C157.4,38.9,157.8,39.3,157.8,40z M149,65c0-1.3,0-2.5-0.1-3.8c-0.1-1.2-0.1-3-0.1-5.4c0-1.9,0.1-3.5,0.3-4.8
	c-2.4,3-5.8,7.2-10.3,12.7c0.8,0.7,1.2,1.5,1.2,2.5c0,2.5-2,4.2-6.1,5.1c-1.6,0.4-3.1,1.3-4.3,2.7c-1.2,1.4-1.8,2.9-1.8,4.5
	c0,1.7,0.6,3.1,1.8,4.2c1.2,1.1,2.7,1.7,4.6,1.7c3.5,0,6.9-2.1,10.1-6.2C147.4,74.1,149,69.7,149,65z"/>
<path d="M185,50l-0.5,1h-8.3l-14.1,24.1c-1.7,2.9-2.6,5.2-2.6,7c0,1.9,1,2.8,3,2.8c3.8,0,10.3-6.7,19.5-20.1
	c0.3-0.4,0.5-0.6,0.8-0.6c0.3,0,0.4,0.1,0.4,0.4c0,0.1-0.3,0.5-0.6,1l-2.7,3.7c-7.9,11-13.9,16.6-17.9,16.6c-2,0-3.6-0.7-5-2.2
	c-1.3-1.4-2-3.2-2-5.4c0-2.5,1.1-5.7,3.4-9.5L168.8,51h-6.5l0.6-1h6.3l7.4-12.3c1.3,0.3,2.5,0.5,3.6,0.5c1.2,0,2.4-0.2,3.7-0.5
	L176.7,50H185z"/>
<path d="M227.6,64.6c0,0.9-3.1,5-9.3,12.3c-5,6-8.9,9-11.8,9c-1.9,0-3.5-0.7-4.8-2.2c-1.2-1.5-1.8-3.3-1.8-5.5c0-2.3,0.7-4.8,2-7.4
	c-4.2,5.9-7.5,9.9-9.7,12c-2.2,2.1-4.4,3.1-6.5,3.1c-2.2,0-4.1-1-5.6-2.9c-1.5-1.9-2.3-4.3-2.3-7.3c0-8.1,5.7-15.3,17.2-21.5
	c5-2.8,9.1-4.2,12.2-4.2c2.6,0,3.9,1.3,3.9,3.8c0,0.7-0.2,1.7-0.5,2.9l3.2-6.1c1.3,0.3,2.4,0.4,3.4,0.4c1.1,0,2.6-0.1,4.4-0.4
	l-11.2,18.6c-3.9,6.5-5.8,10.8-5.8,12.9c0,2,0.8,3,2.5,3c1.7,0,4.4-1.9,8.1-5.8c3.7-3.9,7.5-8.6,11.4-14.3c0.3-0.4,0.5-0.6,0.7-0.6
	C227.5,64.2,227.6,64.3,227.6,64.6z M210.2,54.1c0-2.1-0.9-3.1-2.9-3.1c-3.9,0-9,3.8-15.3,11.4c-6.3,7.6-9.5,13.7-9.5,18.4
	c0,2.7,1.2,4.1,3.7,4.1c2.9,0,8-4.8,15.1-14.5C207.2,62.5,210.2,57.1,210.2,54.1z"/>
<path d="M271.1,64.6c0,0.7-2.3,3.6-6.8,8.7c-5.1,5.7-11.7,10.7-19.8,15.1l-3.2,5.8c-5.7,10.6-12.2,18.8-19.3,24.5
	c-6.8,5.5-12.8,8.3-17.7,8.3c-1.8,0-3.3-0.5-4.5-1.6c-1.2-1.1-1.8-2.4-1.8-4.1c0-8.7,9.8-17.4,29.3-26.3c4.2-1.9,6.9-3.3,8.2-3.9
	l10.8-19.8c-4.7,6.2-8,10.2-9.9,12c-1.9,1.8-3.9,2.7-5.9,2.7c-2.2,0-4.1-1-5.6-2.9c-1.5-1.9-2.3-4.3-2.3-7.1
	c0-7.3,4.8-13.9,14.3-19.9c6.4-4,11.4-6,15-6c2.5,0,3.8,1.4,3.8,4.2c0,0.8-0.2,1.7-0.6,2.7l3.5-6.4c1.1,0.3,2.1,0.4,3,0.4
	c1.1,0,2.7-0.1,4.8-0.4c-0.3,0.4-2.2,3.5-5.6,9.5L245,87.2c5.5-3.1,10-6.1,13.3-9c3.3-2.9,7.1-7.1,11.2-12.6
	c0.6-0.8,1.1-1.3,1.3-1.3C271,64.3,271.1,64.4,271.1,64.6z M234.7,92.1c-0.8,0.5-3.2,1.7-7.2,3.6c-19.3,9.5-28.9,18.1-28.9,25.7
	c0,1.3,0.5,2.4,1.5,3.3c1,0.9,2.2,1.3,3.7,1.3c4.6,0,9.2-2.4,13.6-7.1c4.4-4.8,9.9-13.3,16.5-25.6L234.7,92.1z M254.8,54.2
	c0-2.2-1-3.2-3.1-3.2c-3.8,0-8.8,3.8-15.1,11.4c-6.3,7.6-9.4,13.7-9.4,18.3c0,2.8,1.2,4.2,3.7,4.2c2.5,0,6.7-3.8,12.7-11.3
	C251.1,64.2,254.8,57.7,254.8,54.2z"/>
<path d="M307.3,64.6c0,0.3-1.3,1.9-3.8,4.6c-3.2,3.6-6.2,5.3-9.1,5.3c-3.2,0-4.8-1.9-4.8-5.6c0-1.2,0.3-2.7,0.8-4.5
	c-2.7,2.3-4.8,4.6-6.5,6.9c-1.7,2.3-4.6,6.9-8.6,13.9c-2.2-0.2-3.5-0.3-3.9-0.3c-0.2,0-1.5,0.1-3.9,0.3l10.4-16.8
	c5.2-8.4,7.8-13.7,7.8-15.7c0-1.2-0.5-1.8-1.5-1.8c-2.4,0-6.7,4.5-12.9,13.6c-0.4,0.6-0.7,0.9-1,0.9c-0.2,0-0.3-0.2-0.3-0.4
	c0-0.2,0.1-0.4,0.3-0.5l1.1-1.6c6.5-8.7,10.9-13,13.3-13c3.4,0,5.1,2.2,5.1,6.5c0,3.3-1.7,7.6-5.2,12.9c2.2-2.5,4.3-4.6,6.3-6.2
	c1.6-3.8,3.6-6.9,6-9.4c2.4-2.5,4.5-3.8,6.4-3.8c1.3,0,2,0.6,2,1.7c0,2-2.9,4.9-8.8,8.7c-0.9,0.6-2.3,1.5-4.2,2.6l-0.8,0.6
	c-0.6,1.9-0.9,3.5-0.9,4.8c0,3.5,1.3,5.3,4,5.3c3.3,0,6.9-2.7,10.8-8.2c0.8-0.9,1.4-1.4,1.6-1.4C307.2,64.2,307.3,64.3,307.3,64.6z"
	/>
<path d="M351.8,64.6c0,0.9-3.1,5-9.3,12.3c-5,6-8.9,9-11.8,9c-1.9,0-3.5-0.7-4.8-2.2c-1.2-1.5-1.8-3.3-1.8-5.5c0-2.3,0.7-4.8,2-7.4
	c-4.2,5.9-7.5,9.9-9.7,12c-2.2,2.1-4.4,3.1-6.5,3.1c-2.2,0-4.1-1-5.6-2.9c-1.5-1.9-2.3-4.3-2.3-7.3c0-8.1,5.7-15.3,17.2-21.5
	c5-2.8,9.1-4.2,12.2-4.2c2.6,0,3.9,1.3,3.9,3.8c0,0.7-0.2,1.7-0.5,2.9l3.2-6.1c1.3,0.3,2.4,0.4,3.4,0.4c1.1,0,2.6-0.1,4.4-0.4
	l-11.2,18.6c-3.9,6.5-5.8,10.8-5.8,12.9c0,2,0.8,3,2.5,3c1.7,0,4.4-1.9,8.1-5.8c3.7-3.9,7.5-8.6,11.4-14.3c0.3-0.4,0.5-0.6,0.7-0.6
	C351.6,64.2,351.8,64.3,351.8,64.6z M334.3,54.1c0-2.1-1-3.1-2.9-3.1c-3.9,0-9,3.8-15.3,11.4c-6.3,7.6-9.5,13.7-9.5,18.4
	c0,2.7,1.2,4.1,3.7,4.1c2.9,0,8-4.8,15.1-14.5C331.4,62.5,334.3,57.1,334.3,54.1z"/>
<path d="M422.3,64.6c0,0.1-0.3,0.5-0.6,1l-2.7,3.7c-7.9,11-13.8,16.6-17.6,16.6c-2,0-3.6-0.7-4.9-2.2c-1.3-1.5-1.9-3.4-1.9-5.7
	c0-2.4,0.8-4.9,2.4-7.7c0.3-0.5,1.8-2.8,4.6-6.8c3.5-5.1,5.3-8.4,5.3-9.9c0-1.7-0.9-2.6-2.6-2.6c-5.6,0-15.1,11.4-28.7,34.3
	c-0.8-0.2-2-0.3-3.5-0.3c-1.7,0-3.2,0.1-4.4,0.3l9-14.3c5.9-9.4,8.8-15.1,8.8-17.2c0-1.9-0.8-2.8-2.3-2.8c-2.3,0-6.1,3.3-11.4,10
	c-5.3,6.7-10.5,14.8-15.7,24.3c-1-0.2-2.2-0.3-3.7-0.3c-1.6,0-3.1,0.1-4.3,0.3l9.1-14.3c6.2-9.8,9.4-15.9,9.4-18.2
	c0-1.3-0.5-1.9-1.5-1.9c-2.1,0-6.4,4.5-12.9,13.6c-0.4,0.6-0.8,0.9-1,0.9c-0.2,0-0.3-0.2-0.3-0.4c0-0.4,1.9-3,5.8-7.9
	c3.8-4.8,6.7-7.1,8.8-7.1c1.4,0,2.5,0.6,3.5,1.9c1,1.3,1.5,2.8,1.5,4.6c0,2.4-1.2,5.8-3.7,10.2c7.6-11.1,13.3-16.7,17-16.7
	c1.8,0,3.2,0.7,4.4,2.2c1.1,1.4,1.7,3.2,1.7,5.4c0,2.4-1.1,5.5-3.4,9.2c8-11.1,14-16.7,18.1-16.7c1.8,0,3.3,0.8,4.6,2.3
	c1.2,1.6,1.9,3.5,1.9,5.7c0,2.6-1,5.7-3.1,9.2c0,0-1.9,2.7-5.4,8.1c-2.1,3-3.1,5.4-3.1,7c0,1.7,0.9,2.6,2.6,2.6
	c3.3,0,8.8-5.3,16.4-16l2-2.7l1.1-1.4c0.2-0.4,0.4-0.6,0.6-0.6C422.2,64.2,422.3,64.3,422.3,64.6z"/>
</svg>
