<svg version="1.1" id="Layer_1" xmlns="http://www.w3.org/2000/svg" xmlns:xlink="http://www.w3.org/1999/xlink" x="0px" y="0px"
	 viewBox="0 0 623.3 127" style="enable-background:new 0 0 623.3 127;" xml:space="preserve">
<path d="M107.2,6.8c0,1.9-2,4.7-5.9,8.4c-3.9,3.7-8.7,7.2-14.3,10.5c-0.7,2.3-1.8,6.5-3.2,12.6c-2.3,9.5-4.4,16.3-6.3,20.3
	c-1.9,4-5,8-9.4,12.2C55.6,82.7,41.4,88.7,25.7,88.7c-4.5,0-8.5-0.7-11.9-2.2c-1.9,3.7-2.9,7-2.9,9.7c0,3.5,1.2,6.7,3.5,9.6
	c0.2,0.2,0.4,0.5,0.4,0.9c0,0.3-0.2,0.5-0.6,0.5c-0.9,0-1.9-1.3-3-3.8c-1.1-2.5-1.6-4.9-1.6-7.1c0-3.2,1-6.6,3.1-10.5
	C4.2,81.4,0,73.9,0,63.3c0-6.8,2-13.6,6.1-20.4c4-6.8,9.7-12.9,17.1-18.3c9.4-6.9,18.6-10.3,27.8-10.3c5,0,8.9,1.4,11.9,4.2
	c2.9,2.8,4.4,6.6,4.4,11.4c0,2.6-0.4,5.2-1.1,8c6-4,11.2-7.3,15.8-10.1c2.9-6.4,6.6-11.8,11-16.4c4.4-4.6,8.3-6.9,11.5-6.9
	C106.3,4.4,107.2,5.2,107.2,6.8z M66.1,29.6c0-4.3-1.3-7.7-4-10.3c-2.7-2.6-6.2-3.9-10.7-3.9c-10.9,0-21.4,5.7-31.6,17
	C9.6,43.8,4.5,55.5,4.5,67.6c0,8,2.9,13.6,8.8,17c2.8-4.5,6.7-9.5,11.8-14.9c-2.7-2.3-4-5.1-4-8.3c0-2.4,0.8-4.5,2.3-6.2
	c1.5-1.7,3.4-2.6,5.6-2.6c2.7,0,4.1,1.3,4.1,3.8c0,1.3-0.5,2.4-1.5,3.4c-1,1-2.2,1.4-3.6,1.4c-2,0-3-1-3-2.9c0-0.6,0.2-1.3,0.6-1.9
	c0.2-0.5,0.2-0.8,0.2-0.9c0-0.2-0.1-0.4-0.4-0.4c-0.7,0-1.4,0.7-2.1,2.2c-0.7,1.5-1.1,2.9-1.1,4.3c0,2.7,1.2,5.1,3.7,7.2
	c8.1-8.6,21-18.6,38.6-30.1C65.6,35.2,66.1,32.2,66.1,29.6z M81.1,29.3c-4.7,3-9.9,6.4-15.5,10.2c-2.7,8.6-7.4,16.1-14.1,22.6
	c-6.7,6.5-13.1,9.7-19.3,9.7c-1.9,0-3.9-0.5-6.1-1.5c-4.6,4.7-8.5,9.7-11.7,14.9c3.3,1.5,7.1,2.2,11.3,2.2c7.6,0,15-2.2,22.1-6.5
	c7.1-4.3,13.2-10.3,18.3-17.9c2.4-3.6,4.3-6.9,5.6-9.9c1.4-3.1,3.6-8.8,6.7-17.3C79.2,33.8,80.1,31.6,81.1,29.3z M63.9,40.5l-4,2.7
	c-15.3,10.5-26.3,19.3-33,26.3c1.7,0.9,3.5,1.3,5.5,1.3c5.7,0,11.6-3,17.8-8.9C56.4,56,60.9,48.8,63.9,40.5z M106.1,6.9
	c0-1-0.6-1.5-1.7-1.5c-2.7,0-5.7,1.9-9.1,5.6c-3.3,3.7-5.9,8.1-7.7,13.1c5.3-3.3,9.8-6.6,13.3-9.8C104.3,11.1,106.1,8.6,106.1,6.9z"
	/>
<path d="M103.6,67.1c0,0.1-0.2,0.4-0.6,1l-2.6,3.6C92.8,82.3,87,87.6,83,87.6c-1.9,0-3.5-0.7-4.8-2c-1.3-1.4-1.9-3-1.9-5.1
	c0-2.3,1.4-5.9,4.2-10.7l9.5-16.1c1.3,0.3,2.2,0.4,3,0.4c1.1,0,2.6-0.1,4.6-0.4L83.7,76.3c-2,3.3-3,5.8-3,7.6c0,1.8,1,2.7,2.9,2.7
	c3.6,0,10-6.4,19-19.3c0.2-0.4,0.4-0.6,0.6-0.6C103.5,66.8,103.6,66.9,103.6,67.1z M102.7,42c0,1.4-0.6,2.7-1.8,4
	c-1.2,1.2-2.5,1.9-3.9,1.9c-1.8,0-2.7-0.9-2.7-2.7c0-1.3,0.6-2.6,1.9-3.9c1.3-1.2,2.6-1.9,3.9-1.9C101.9,39.4,102.7,40.3,102.7,42z"
	/>
<path d="M145.3,67.2c0,0.6-2.2,3.4-6.6,8.3c-4.9,5.4-11.2,10.2-19,14.5l-3,5.5c-5.5,10.2-11.7,18-18.5,23.5c-6.6,5.3-12.2,8-17,8
	c-1.7,0-3.2-0.5-4.3-1.6c-1.1-1.1-1.7-2.3-1.7-3.9c0-8.3,9.4-16.7,28.1-25.3c4-1.9,6.7-3.1,7.8-3.8l10.3-19c-4.5,6-7.7,9.8-9.5,11.5
	c-1.8,1.7-3.7,2.6-5.7,2.6c-2.1,0-3.9-0.9-5.4-2.8c-1.5-1.9-2.2-4.1-2.2-6.8c0-7,4.6-13.4,13.7-19.1c6.1-3.8,10.9-5.7,14.4-5.7
	c2.4,0,3.6,1.3,3.6,4c0,0.7-0.2,1.6-0.5,2.6l3.4-6.1c1.1,0.3,2,0.4,2.9,0.4c1.1,0,2.6-0.1,4.6-0.4c-0.3,0.4-2.1,3.4-5.3,9.1
	l-15.1,26c5.3-3,9.5-5.9,12.7-8.7c3.2-2.8,6.8-6.8,10.8-12.1c0.6-0.8,1-1.2,1.2-1.2C145.2,66.9,145.3,67,145.3,67.2z M110.5,93.5
	c-0.8,0.4-3.1,1.6-6.9,3.5c-18.5,9.1-27.7,17.4-27.7,24.7c0,1.3,0.5,2.3,1.4,3.2c0.9,0.9,2.1,1.3,3.6,1.3c4.5,0,8.8-2.3,13-6.8
	c4.2-4.6,9.5-12.7,15.8-24.5L110.5,93.5z M129.7,57.2c0-2.1-1-3.1-3-3.1c-3.6,0-8.5,3.6-14.5,10.9c-6,7.3-9,13.1-9,17.6
	c0,2.7,1.2,4.1,3.5,4.1c2.4,0,6.4-3.6,12.1-10.8C126.1,66.7,129.7,60.5,129.7,57.2z"/>
<path d="M194.1,67.1c0,0.9-2.9,4.8-8.8,11.8c-4.8,5.8-8.6,8.6-11.4,8.6c-1.8,0-3.4-0.7-4.6-2.1c-1.2-1.4-1.9-3.2-1.9-5.2
	c0-1.8,0.4-3.5,1.1-5.1c0.7-1.6,2.7-4.6,5.9-9.3c3.3-4.9,4.9-8,4.9-9.3c0-1.7-0.9-2.5-2.6-2.5c-5.9,0-15,11-27.3,32.9
	c-2-0.2-3.2-0.2-3.6-0.2c-1.4,0-2.8,0.1-4,0.2l9.5-15c5.4-8.6,8.1-13.9,8.1-16.1c0-1.2-0.5-1.8-1.5-1.8c-2.1,0-6.1,4.4-12.2,13.1
	c-0.4,0.5-0.6,0.8-0.9,0.9c-0.2,0-0.3-0.1-0.4-0.4c0-0.2,0.1-0.4,0.2-0.5l1.2-1.5c6.2-8.3,10.4-12.5,12.5-12.5
	c1.4,0,2.6,0.6,3.5,1.9c1,1.3,1.5,2.8,1.5,4.5c0,2.6-1.5,6.2-4.6,10.8c4.8-6.6,8.5-11.1,11-13.5c2.6-2.4,4.9-3.6,7.1-3.6
	c1.8,0,3.3,0.7,4.5,2.2c1.2,1.5,1.8,3.3,1.8,5.4c0,2.7-1.9,6.9-5.6,12.4c-3.8,5.7-5.7,9.4-5.7,10.9c0,1.7,0.8,2.5,2.5,2.5
	c3.6,0,9.8-6.4,18.7-19.3c0.2-0.4,0.4-0.6,0.6-0.6C193.9,66.8,194.1,66.9,194.1,67.1z"/>
<path d="M236.7,67.1c0,0.9-3,4.8-8.9,11.8c-4.8,5.8-8.6,8.6-11.3,8.6c-1.9,0-3.4-0.7-4.6-2.1c-1.2-1.4-1.8-3.1-1.8-5.3
	c0-2.2,0.6-4.6,1.9-7.1c-4,5.7-7.1,9.5-9.3,11.5c-2.1,2-4.2,3-6.3,3c-2.1,0-3.9-0.9-5.4-2.8c-1.5-1.8-2.2-4.2-2.2-7
	c0-7.8,5.5-14.7,16.5-20.6c4.8-2.7,8.7-4,11.7-4c2.5,0,3.8,1.2,3.8,3.6c0,0.7-0.2,1.6-0.5,2.7l3.1-5.9c1.2,0.3,2.3,0.4,3.2,0.4
	c1.1,0,2.5-0.1,4.3-0.4l-10.7,17.8c-3.7,6.2-5.6,10.3-5.6,12.3c0,1.9,0.8,2.9,2.4,2.9c1.6,0,4.2-1.9,7.8-5.6s7.2-8.3,10.9-13.7
	c0.2-0.4,0.5-0.6,0.7-0.6C236.6,66.8,236.7,66.9,236.7,67.1z M220,57.1c0-2-0.9-3-2.7-3c-3.7,0-8.6,3.6-14.7,10.9
	c-6.1,7.3-9.1,13.2-9.1,17.7c0,2.6,1.2,3.9,3.5,3.9c2.8,0,7.6-4.6,14.5-13.9C217.2,65.1,220,59.9,220,57.1z"/>
<path d="M259.2,53.2l-0.5,0.9h-8l-13.5,23.1c-1.7,2.8-2.5,5-2.5,6.7c0,1.8,1,2.7,2.9,2.7c3.7,0,9.9-6.4,18.7-19.3
	c0.3-0.4,0.5-0.6,0.7-0.6c0.2,0,0.4,0.1,0.4,0.4c0,0.1-0.2,0.4-0.6,1l-2.6,3.6c-7.6,10.6-13.4,15.9-17.2,15.9
	c-1.9,0-3.5-0.7-4.8-2.1c-1.3-1.4-1.9-3.1-1.9-5.2c0-2.4,1.1-5.5,3.2-9.1l10.2-17.1h-6.2l0.6-0.9h6.1l7.1-11.8
	c1.2,0.3,2.4,0.5,3.5,0.5c1.1,0,2.3-0.2,3.5-0.5l-7,11.8H259.2z"/>
<path d="M296.3,67.1c0,0.9-2.9,4.9-8.8,11.8c-4.9,5.8-8.7,8.6-11.6,8.6c-1.8,0-3.3-0.7-4.5-2.2c-1.2-1.4-1.9-3.2-1.9-5.2
	c0-1.6,0.8-3.8,2.4-6.6l-1.2,1.6c-3.7,4.8-6.5,8-8.2,9.6c-1.9,1.8-3.7,2.7-5.4,2.7c-1.8,0-3.3-0.7-4.5-2.1c-1.2-1.4-1.8-3.1-1.8-5.1
	c0-2.3,0.9-5,2.7-8.1l11.1-18.6c1.4,0.3,2.4,0.4,3.2,0.4c0.8,0,2.1-0.1,4.1-0.4l-14.5,23.8c-1.5,2.4-2.2,4.6-2.2,6.4
	c0,1.8,0.8,2.7,2.3,2.7c4.1,0,10.6-7.6,19.7-22.9l6-10.1c1.3,0.3,2.3,0.4,3.2,0.4c1,0,2.4-0.1,4.3-0.4L281,69.5
	c-4.6,7.5-6.9,12.4-6.9,14.5c0,1.7,0.8,2.6,2.5,2.6c3.2,0,8.5-5.1,15.8-15.3l1.9-2.6l1.1-1.3c0.2-0.4,0.4-0.6,0.6-0.6
	C296.2,66.8,296.3,66.9,296.3,67.1z"/>
<path d="M330.9,67.1c0,0.3-1.2,1.8-3.6,4.4c-3.1,3.4-6,5.1-8.7,5.1c-3.1,0-4.6-1.8-4.6-5.3c0-1.1,0.2-2.6,0.7-4.3
	c-2.6,2.2-4.6,4.4-6.2,6.6c-1.6,2.2-4.4,6.6-8.3,13.4c-2.1-0.2-3.4-0.2-3.8-0.2c-0.2,0-1.4,0.1-3.7,0.2l10-16.2
	c5-8.1,7.5-13.1,7.5-15.1c0-1.1-0.5-1.7-1.4-1.7c-2.3,0-6.4,4.4-12.4,13.1c-0.4,0.6-0.7,0.9-1,0.9c-0.2,0-0.2-0.2-0.2-0.4
	c0-0.2,0.1-0.4,0.2-0.5l1.1-1.5c6.2-8.3,10.5-12.5,12.7-12.5c3.2,0,4.9,2.1,4.9,6.3c0,3.1-1.7,7.2-5,12.4c2.1-2.4,4.1-4.4,6-6
	c1.5-3.6,3.5-6.6,5.7-9c2.3-2.4,4.3-3.6,6.2-3.6c1.3,0,1.9,0.5,1.9,1.6c0,1.9-2.8,4.7-8.4,8.3c-0.9,0.6-2.2,1.4-4,2.5l-0.7,0.6
	c-0.6,1.9-0.9,3.4-0.9,4.6c0,3.4,1.3,5.1,3.8,5.1c3.2,0,6.6-2.6,10.3-7.9c0.8-0.9,1.3-1.3,1.5-1.3C330.8,66.8,330.9,66.9,330.9,67.1
	z"/>
<path d="M361.5,67.2c0,0.1-0.4,0.6-1.1,1.6l-2.6,3.3c-8.4,10.3-15.6,15.5-21.6,15.5c-2.8,0-5.2-1-7.1-3.1c-1.9-2-2.9-4.6-2.9-7.7
	c0-7.3,5.1-13.7,15.2-19.3c5.3-2.9,9.7-4.4,13.1-4.4c1.5,0,2.7,0.4,3.7,1.3c1,0.9,1.5,1.9,1.5,3.2c0,2.9-1.9,5.4-5.7,7.4
	c-3.8,2-10.2,4-19.1,5.7c-2.8,4.2-4.1,7.7-4.1,10.4c0,3.5,1.9,5.2,5.7,5.2c6.4,0,14.2-6.2,23.5-18.7c0.5-0.6,0.9-1,1.2-1
	C361.4,66.9,361.5,67,361.5,67.2z M356.3,55.9c0-1.3-0.7-1.9-2.1-1.9c-2.1,0-5,1.5-8.5,4.5c-3.5,3-6.9,6.8-10.3,11.6
	c5.8-1.5,10.8-3.6,14.8-6.3C354.3,60.9,356.3,58.4,356.3,55.9z"/>
<path d="M559.2,25.5c0,1.6-0.2,3.1-0.5,4.6c-0.3,1.5-0.7,2.2-1.1,2.2c-0.3,0-0.4-0.1-0.4-0.3c0-0.2,0.1-0.3,0.1-0.5
	c0.6-1.4,0.9-3.3,0.9-5.7c0-5.4-2.1-9.9-6.4-13.7c-4.3-3.7-9.5-5.6-15.7-5.6c-10,0-20.2,4.9-30.7,14.7c-4.1,3.8-7.7,7.6-10.7,11.2
	c-2.9,3.4-8.5,10.7-16.9,21.9c-12.4,16.4-22.5,26.6-30.5,30.7c-3.6,1.8-5.8,2.7-6.9,2.7c-0.2,0-0.4-0.1-0.4-0.4c0,0,0.5-0.4,1.3-1
	c4-3,7.1-6.9,9.5-11.9c2.2-4.6,6.1-15.4,11.8-32.5c4.8-14.6,10.3-25,16.5-31.3c0.2-0.2,0.4-0.4,0.4-0.6c-0.5-0.2-1.7,0.7-3.6,2.6
	c-6,6-13.1,16.8-21.3,32.3c-5,9.6-9.4,16.8-13.2,21.7c-3.8,4.9-8.3,9.2-13.5,13c-8.6,6.2-17.2,9.2-25.9,9.2
	c-5.6,0-10.2-1.2-13.8-3.6c-3.5-2.4-5.3-5.4-5.3-9.1c0-2.1,0.6-3.9,1.8-5.3c1.2-1.4,2.7-2.2,4.6-2.2c2.6,0,3.9,1.3,3.9,3.9
	c0,1.3-0.4,2.5-1.3,3.4c-0.9,1-1.9,1.4-3.1,1.4c-2,0-3-1.1-3-3.3c0-0.8-0.2-1.2-0.5-1.2c-0.7,0-1,1.1-1,3.3c0,3.3,1.7,6,5,8.2
	c3.3,2.1,7.5,3.2,12.7,3.2c10.6,0,20.9-5.5,31.1-16.5c4.1-4.4,7.6-8.7,10.4-12.9c2.8-4.2,8.5-13.3,17-27.4c3.6-6,7.6-11.4,12.1-16.2
	c4.5-4.9,7.7-7.3,9.6-7.3c0.3,0,0.4,0.1,0.4,0.4c0,0.2-0.1,0.3-0.2,0.5c-3.8,4.1-7.2,11.9-10.2,23.4c-4.5,16.8-8.8,29-12.8,36.7
	c-4,7.5-9.1,13.1-15.3,16.9c-0.2,0-0.2,0.1-0.2,0.2c0,0,0.1,0.1,0.2,0.1c0.9,0,3.2-1.3,6.8-3.9c4.4-3.1,8.4-6.8,12.1-11.1
	c3.7-4.3,10.4-13.1,20-26.4c6.8-9.4,12.3-16.3,16.3-20.6s8.5-8.2,13.4-11.5c7.6-5.1,15.4-7.7,23.1-7.7c6.8,0,12.4,2,16.8,5.9
	C557,14.3,559.2,19.4,559.2,25.5z M462.9,22.1c0,0.9-1.2,2.6-3.5,5.2c-3.5,3.9-6.9,5.9-10.1,5.9c-2.2,0-4.1-0.8-5.7-2.5
	c-1.5-1.6-2.3-3.7-2.3-6c0-2.3,0.8-5.1,2.5-8.3c2.1-4,3.1-6.9,3.1-8.6c0-2.1-1-3.7-2.9-5c-1.9-1.3-4.5-1.9-7.7-1.9
	c-9,0-17.5,3.6-25.4,10.9c-7.9,7.3-11.9,15-11.9,23.3c0,4.3,1.3,7.7,3.9,10.4c2.6,2.7,6,4,10.1,4c3.6,0,7.3-1,11.1-3.1
	c3.7-2.1,6.8-4.8,9.1-8c0.2-0.2,0.3-0.3,0.4-0.3c0.3,0,0.5,0.2,0.5,0.5c0,0.8-1.3,2.4-3.9,4.7c-5.3,4.8-11.1,7.2-17.4,7.2
	c-4.4,0-7.9-1.4-10.7-4.3c-2.8-2.8-4.1-6.5-4.1-11.1c0-8.8,4.1-16.9,12.2-24.2c8.1-7.4,17-11.1,26.6-11.1c4,0,7.1,1,9.3,3
	c2.2,2,3.4,4.7,3.4,8.2c0,2.6-1.3,6.5-3.9,11.8c-0.9,1.9-1.3,3.3-1.3,4.4c0,3.1,1.7,4.6,5,4.6c2,0,4.2-1,6.7-2.9
	c2.5-1.9,4.4-4.2,5.9-7c0.2-0.4,0.4-0.6,0.6-0.6C462.8,21.6,462.9,21.8,462.9,22.1z M530,9c0,0.2-0.5,0.6-1.6,1.2
	c-4.7,2.5-8.9,6.1-12.5,10.9c-3.6,4.7-7.7,12-12.3,21.8c-6.7,14.3-12.7,24.5-18,30.7c-5.3,6.2-11.8,10.7-19.6,13.4
	c3.6,0.5,6.4,0.8,8.3,0.8c6.2,0,11.2-1.3,15-4c3.7-2.7,9-8.6,15.9-17.8c0.4-0.6,0.8-0.9,1-0.9c0.2,0,0.2,0.2,0.2,0.4
	c0,0.4-1.9,3-5.7,7.8c-4.7,5.9-8.8,10-12.5,12.1c-3.7,2.1-8.2,3.2-13.5,3.2c-3.3,0-6.9-0.4-10.8-1.1c-2.7,0.9-5.5,1.4-8.3,1.4
	c-2.1,0-3.2-0.4-3.2-1.2c0-1,1.5-1.5,4.5-1.5c1.7,0,3.8,0.2,6.6,0.6h0.8c4.3-1.5,7.9-4,10.9-7.3s6.5-9,10.7-16.9
	c8.5-16.1,15.2-27.4,20.1-34.1c4.8-6.4,10.5-11.9,17.2-16.4c3.4-2.2,5.5-3.3,6.5-3.3C529.8,8.7,530,8.8,530,9z"/>
<path d="M535.7,67.2c0,0.1-0.4,0.6-1.1,1.6L532,72c-8.4,10.3-15.6,15.5-21.6,15.5c-2.8,0-5.2-1-7.1-3.1c-1.9-2-2.9-4.6-2.9-7.7
	c0-7.3,5.1-13.7,15.2-19.3c5.3-2.9,9.7-4.4,13.1-4.4c1.5,0,2.7,0.4,3.7,1.3c1,0.9,1.5,1.9,1.5,3.2c0,2.9-1.9,5.4-5.7,7.4
	c-3.8,2-10.2,4-19.1,5.7c-2.8,4.2-4.1,7.7-4.1,10.4c0,3.5,1.9,5.2,5.7,5.2c6.4,0,14.2-6.2,23.5-18.7c0.5-0.6,0.9-1,1.2-1
	C535.6,66.9,535.7,67,535.7,67.2z M530.6,55.9c0-1.3-0.7-1.9-2.1-1.9c-2.1,0-5,1.5-8.5,4.5c-3.5,3-6.9,6.8-10.3,11.6
	c5.8-1.5,10.8-3.6,14.8-6.3C528.5,60.9,530.6,58.4,530.6,55.9z"/>
<path d="M584.3,67.1c0,0.9-2.9,4.8-8.8,11.8c-4.8,5.8-8.6,8.6-11.4,8.6c-1.8,0-3.4-0.7-4.6-2.1c-1.2-1.4-1.9-3.2-1.9-5.2
	c0-1.8,0.4-3.5,1.1-5.1c0.7-1.6,2.7-4.6,5.9-9.3c3.3-4.9,4.9-8,4.9-9.3c0-1.7-0.9-2.5-2.6-2.5c-5.9,0-15,11-27.3,32.9
	c-2-0.2-3.2-0.2-3.6-0.2c-1.4,0-2.8,0.1-4,0.2l9.5-15c5.4-8.6,8.1-13.9,8.1-16.1c0-1.2-0.5-1.8-1.5-1.8c-2.1,0-6.1,4.4-12.2,13.1
	c-0.4,0.5-0.6,0.8-0.9,0.9c-0.2,0-0.3-0.1-0.4-0.4c0-0.2,0.1-0.4,0.2-0.5l1.2-1.5c6.2-8.3,10.4-12.5,12.5-12.5
	c1.4,0,2.6,0.6,3.5,1.9c1,1.3,1.5,2.8,1.5,4.5c0,2.6-1.5,6.2-4.6,10.8c4.8-6.6,8.5-11.1,11-13.5c2.6-2.4,4.9-3.6,7.1-3.6
	c1.8,0,3.3,0.7,4.5,2.2c1.2,1.5,1.8,3.3,1.8,5.4c0,2.7-1.9,6.9-5.6,12.4c-3.8,5.7-5.7,9.4-5.7,10.9c0,1.7,0.8,2.5,2.5,2.5
	c3.6,0,9.8-6.4,18.7-19.3c0.2-0.4,0.4-0.6,0.6-0.6C584.2,66.8,584.3,66.9,584.3,67.1z"/>
<path d="M623.3,67.1c0,0.9-2.9,4.9-8.8,11.8c-4.9,5.8-8.7,8.6-11.6,8.6c-1.8,0-3.3-0.7-4.5-2.2c-1.2-1.4-1.9-3.2-1.9-5.2
	c0-1.6,0.8-3.8,2.4-6.6l-1.2,1.6c-3.7,4.8-6.5,8-8.2,9.6c-1.9,1.8-3.7,2.7-5.4,2.7c-1.8,0-3.3-0.7-4.5-2.1c-1.2-1.4-1.8-3.1-1.8-5.1
	c0-2.3,0.9-5,2.7-8.1l11.1-18.6c1.4,0.3,2.4,0.4,3.2,0.4c0.8,0,2.1-0.1,4.1-0.4l-14.5,23.8c-1.5,2.4-2.2,4.6-2.2,6.4
	c0,1.8,0.8,2.7,2.3,2.7c4.1,0,10.6-7.6,19.7-22.9l6-10.1c1.3,0.3,2.3,0.4,3.2,0.4c1,0,2.4-0.1,4.3-0.4l-9.7,15.8
	c-4.6,7.5-6.9,12.4-6.9,14.5c0,1.7,0.8,2.6,2.5,2.6c3.2,0,8.5-5.1,15.8-15.3l1.9-2.6l1.1-1.3c0.2-0.4,0.4-0.6,0.6-0.6
	C623.1,66.8,623.3,66.9,623.3,67.1z"/>
</svg>
