<svg version="1.1" id="Layer_1" xmlns="http://www.w3.org/2000/svg" xmlns:xlink="http://www.w3.org/1999/xlink" x="0px" y="0px"
	 viewBox="0 0 100 100" style="enable-background:new 0 0 100 100;" xml:space="preserve">
<style type="text/css">
	.st0{fill:#27A8E0;}
	.st1{fill:#FFFFFF;}
</style>
<path class="st0" d="M50,0c27.6,0,50,22.4,50,50s-22.4,50-50,50S0,77.6,0,50S22.4,0,50,0"/>
<g>
	<path class="st1" d="M83,33.4c-2.2,1-4.5,1.6-7,1.9c2.5-1.5,4.4-3.9,5.3-6.7C79,30,76.4,31,73.6,31.6c-2.2-2.4-5.4-3.8-8.8-3.8
		c-6.7,0-12.1,5.4-12.1,12.1c0,1,0.1,1.9,0.3,2.8C42.9,42.1,34,37.3,28,30c-1,1.8-1.6,3.9-1.6,6.1c0,4.2,2.1,7.9,5.4,10.1
		c-2-0.1-3.8-0.6-5.5-1.5v0.2c0,5.9,4.2,10.8,9.7,11.9c-1,0.3-2.1,0.4-3.2,0.4c-0.8,0-1.5-0.1-2.3-0.2c1.5,4.8,6,8.3,11.3,8.4
		c-4.2,3.2-9.4,5.2-15,5.2c-1,0-1.9-0.1-2.9-0.2c5.4,3.4,11.7,5.4,18.6,5.4c22.3,0,34.4-18.5,34.4-34.5c0-0.5,0-1,0-1.6
		C79.3,38,81.3,35.9,83,33.4"/>
</g>
</svg>
