<svg version="1.1" id="Layer_1" xmlns="http://www.w3.org/2000/svg" xmlns:xlink="http://www.w3.org/1999/xlink" x="0px" y="0px"
	 viewBox="0 0 100 100" style="enable-background:new 0 0 100 100;" xml:space="preserve">
<style type="text/css">
	.st0{fill:#C4C4C4;}
</style>
<g>
	<path class="st0" d="M50,0C22.4,0,0,22.4,0,50s22.4,50,50,50s50-22.4,50-50S77.6,0,50,0z M76.1,63.2c-7,8-22.6,17.8-26.1,19.3
		c-3.5,1.5-3-1-2.9-1.8c0.1-0.5,0.5-2.8,0.5-2.8c0.1-0.8,0.2-2.2-0.1-3c-0.4-0.9-1.8-1.4-2.9-1.6c-16-2.1-27.8-13.3-27.8-26.6
		c0-14.9,14.9-27,33.3-27c18.3,0,33.3,12.1,33.3,27C83.3,52.6,80.9,58,76.1,63.2L76.1,63.2z"/>
	<path class="st0" d="M43.2,39.4h-2.3c-0.4,0-0.6,0.3-0.6,0.6v14.5c0,0.4,0.3,0.6,0.6,0.6h2.3c0.4,0,0.6-0.3,0.6-0.6V40.1
		C43.9,39.7,43.6,39.4,43.2,39.4z"/>
	<path class="st0" d="M59.3,39.4H57c-0.4,0-0.6,0.3-0.6,0.6v8.6l-6.6-9c0,0,0,0-0.1-0.1c0,0,0,0,0,0c0,0,0,0,0,0c0,0,0,0,0,0
		c0,0,0,0,0,0c0,0,0,0,0,0c0,0,0,0,0,0c0,0,0,0,0,0c0,0,0,0,0,0c0,0,0,0,0,0c0,0,0,0,0,0c0,0,0,0,0,0c0,0,0,0,0,0c0,0,0,0,0,0
		c0,0,0,0,0,0c0,0,0,0,0,0c0,0,0,0,0,0c0,0,0,0,0,0c0,0,0,0,0,0h-2.3c-0.4,0-0.6,0.3-0.6,0.6v14.5c0,0.4,0.3,0.6,0.6,0.6h2.3
		c0.4,0,0.6-0.3,0.6-0.6V46l6.6,9c0,0.1,0.1,0.1,0.2,0.2c0,0,0,0,0,0c0,0,0,0,0,0c0,0,0,0,0,0c0,0,0,0,0,0c0,0,0,0,0,0c0,0,0,0,0,0
		c0,0,0,0,0,0c0,0,0,0,0,0c0.1,0,0.1,0,0.2,0h2.3c0.4,0,0.6-0.3,0.6-0.6V40.1C59.9,39.7,59.7,39.4,59.3,39.4z"/>
	<path class="st0" d="M37.6,51.6h-6.3V40.1c0-0.4-0.3-0.6-0.6-0.6h-2.3c-0.4,0-0.6,0.3-0.6,0.6v14.5v0c0,0.2,0.1,0.3,0.2,0.4
		c0,0,0,0,0,0c0,0,0,0,0,0c0.1,0.1,0.3,0.2,0.4,0.2h0h9.3c0.4,0,0.6-0.3,0.6-0.6v-2.3C38.3,51.9,38,51.6,37.6,51.6z"/>
	<path class="st0" d="M72.2,39.4h-9.3h0c-0.2,0-0.3,0.1-0.4,0.2c0,0,0,0,0,0c0,0,0,0,0,0c-0.1,0.1-0.2,0.3-0.2,0.4v0v14.5v0
		c0,0.2,0.1,0.3,0.2,0.4c0,0,0,0,0,0c0,0,0,0,0,0c0.1,0.1,0.3,0.2,0.4,0.2h0h9.3c0.4,0,0.6-0.3,0.6-0.6v-2.3c0-0.4-0.3-0.6-0.6-0.6
		h-6.3v-2.4h6.3c0.4,0,0.6-0.3,0.6-0.6v-2.3c0-0.4-0.3-0.6-0.6-0.6h-6.3v-2.4h6.3c0.4,0,0.6-0.3,0.6-0.6v-2.3
		C72.8,39.7,72.5,39.4,72.2,39.4z"/>
</g>
</svg>
