<svg version="1.1" id="Layer_1" xmlns="http://www.w3.org/2000/svg" xmlns:xlink="http://www.w3.org/1999/xlink" x="0px" y="0px"
	 viewBox="0 0 100 100" style="enable-background:new 0 0 100 100;" xml:space="preserve">
<style type="text/css">
	.st0{fill:#09CE20;}
	.st1{fill:#FFFFFF;}
</style>
<path class="st0" d="M50,0c27.6,0,50,22.4,50,50s-22.4,50-50,50S0,77.6,0,50S22.4,0,50,0"/>
<path class="st1" d="M83.3,46.6c0-14.9-14.9-27-33.3-27c-18.3,0-33.3,12.1-33.3,27c0,13.3,11.8,24.5,27.8,26.6
	c1.1,0.2,2.6,0.7,2.9,1.6c0.3,0.8,0.2,2.2,0.1,3c0,0-0.4,2.3-0.5,2.8C47,81.6,46.5,84,50,82.5c3.5-1.5,19.2-11.3,26.1-19.3h0
	C80.9,58,83.3,52.6,83.3,46.6"/>
<g>
	<path class="st0" d="M43.2,39.4h-2.3c-0.4,0-0.6,0.3-0.6,0.6v14.5c0,0.4,0.3,0.6,0.6,0.6h2.3c0.4,0,0.6-0.3,0.6-0.6V40.1
		C43.9,39.7,43.6,39.4,43.2,39.4"/>
	<path class="st0" d="M59.3,39.4H57c-0.4,0-0.6,0.3-0.6,0.6v8.6l-6.6-9c0,0,0,0-0.1-0.1c0,0,0,0,0,0c0,0,0,0,0,0c0,0,0,0,0,0
		c0,0,0,0,0,0c0,0,0,0,0,0c0,0,0,0,0,0c0,0,0,0,0,0c0,0,0,0,0,0c0,0,0,0,0,0c0,0,0,0,0,0c0,0,0,0,0,0c0,0,0,0,0,0c0,0,0,0,0,0
		c0,0,0,0,0,0c0,0,0,0,0,0c0,0,0,0,0,0c0,0,0,0,0,0c0,0,0,0,0,0h-2.3c-0.4,0-0.6,0.3-0.6,0.6v14.5c0,0.4,0.3,0.6,0.6,0.6h2.3
		c0.4,0,0.6-0.3,0.6-0.6V46l6.6,9c0,0.1,0.1,0.1,0.2,0.2c0,0,0,0,0,0c0,0,0,0,0,0c0,0,0,0,0,0c0,0,0,0,0,0c0,0,0,0,0,0c0,0,0,0,0,0
		c0,0,0,0,0,0c0,0,0,0,0,0c0.1,0,0.1,0,0.2,0h2.3c0.4,0,0.6-0.3,0.6-0.6V40.1C59.9,39.7,59.7,39.4,59.3,39.4"/>
	<path class="st0" d="M37.6,51.6h-6.3V40.1c0-0.4-0.3-0.6-0.6-0.6h-2.3c-0.4,0-0.6,0.3-0.6,0.6v14.5v0c0,0.2,0.1,0.3,0.2,0.4
		c0,0,0,0,0,0c0,0,0,0,0,0c0.1,0.1,0.3,0.2,0.4,0.2h0h9.3c0.4,0,0.6-0.3,0.6-0.6v-2.3C38.3,51.9,38,51.6,37.6,51.6"/>
	<path class="st0" d="M72.2,43.1c0.4,0,0.6-0.3,0.6-0.6v-2.3c0-0.4-0.3-0.6-0.6-0.6h-9.3h0c-0.2,0-0.3,0.1-0.4,0.2c0,0,0,0,0,0
		c0,0,0,0,0,0c-0.1,0.1-0.2,0.3-0.2,0.4v0v14.5v0c0,0.2,0.1,0.3,0.2,0.4c0,0,0,0,0,0c0,0,0,0,0,0c0.1,0.1,0.3,0.2,0.4,0.2h0h9.3
		c0.4,0,0.6-0.3,0.6-0.6v-2.3c0-0.4-0.3-0.6-0.6-0.6h-6.3v-2.4h6.3c0.4,0,0.6-0.3,0.6-0.6v-2.3c0-0.4-0.3-0.6-0.6-0.6h-6.3v-2.4
		H72.2z"/>
</g>
</svg>
