<svg version="1.1" id="Layer_1" xmlns="http://www.w3.org/2000/svg" xmlns:xlink="http://www.w3.org/1999/xlink" x="0px" y="0px"
	 viewBox="0 0 100 100" style="enable-background:new 0 0 100 100;" xml:space="preserve">
<style type="text/css">
	.st0{fill:#09CE20;}
	.st1{fill:#FFFFFF;}
</style>
<path class="st0" d="M50,0c27.6,0,50,22.4,50,50s-22.4,50-50,50S0,77.6,0,50S22.4,0,50,0"/>
<g>
	<path class="st1" d="M74.2,27.3H36.7c-1.7,0-3,1.3-3,3v26.2c0,1.7,1.3,3,3,3h21.5l7.7,9.1c0,0,1.4,2,2.4,1.9
		c0.9-0.1,0.9-1.3,0.9-1.3v-9.7h5c1.7,0,3-1.3,3-3V30.3C77.2,28.7,75.9,27.3,74.2,27.3z M51.2,45.7c0,1-0.8,1.8-1.8,1.8h-1.6
		c-1,0-1.8-0.8-1.8-1.8v-4.5c0-1,0.8-1.8,1.8-1.8h1.6c1,0,1.8,0.8,1.8,1.8V45.7z M65,45.7c0,1-0.8,1.8-1.8,1.8h-1.6
		c-1,0-1.8-0.8-1.8-1.8v-4.5c0-1,0.8-1.8,1.8-1.8h1.6c1,0,1.8,0.8,1.8,1.8V45.7z"/>
	<path class="st1" d="M33.2,63.2c-1.7,0-3-1.3-3-3V43.5h-5.1c-1.3,0-2.4,1.1-2.4,2.5v21.8c0,1.4,1.1,2.5,2.4,2.5h8.7v8.1
		c0,0,0.1,1.1,1.8,1.1c0.8,0,1.9-1.6,1.9-1.6l6.1-7.6h11.1c1.3,0,2.4-1.1,2.4-2.5v-4.6l0,0H33.2z"/>
</g>
</svg>
