<svg version="1.1" id="Layer_1" xmlns="http://www.w3.org/2000/svg" xmlns:xlink="http://www.w3.org/1999/xlink" x="0px" y="0px"
	 viewBox="0 0 100 100" style="enable-background:new 0 0 100 100;" xml:space="preserve">
<style type="text/css">
	.st0{fill:#E74336;}
	.st1{fill:#FFFFFF;}
</style>
<path class="st0" d="M50,0c27.6,0,50,22.4,50,50s-22.4,50-50,50S0,77.6,0,50S22.4,0,50,0"/>
<g>
	<path class="st1" d="M57,46.8h-7.3l0,0c0,0,0,0,0,0H37.2v8h11.3c0,1.3-0.5,2.4-1.4,3.5c-2.4,2.9-6,4.7-10,4.7c-7.2,0-13-5.8-13-13
		c0-7.2,5.8-13,13-13c3.2,0,6.1,1.2,8.3,3.1l5.5-5.8C47.3,31,42.5,29,37.1,29c-11.6,0-21,9.4-21,21c0,11.6,9.4,21,21,21
		c4,0,7.8-1.2,11-3.1c6-3.7,9.1-10.3,9.1-17.8C57.3,48.9,57.2,47.8,57,46.8"/>
	<polygon class="st1" points="83.8,46.2 75.4,46.2 75.4,37.8 69.7,37.8 69.7,46.2 61.2,46.2 61.2,51.9 69.7,51.9 69.7,60.4 
		75.4,60.4 75.4,51.9 83.8,51.9 	"/>
</g>
</svg>
