<svg version="1.1" id="Layer_1" xmlns="http://www.w3.org/2000/svg" xmlns:xlink="http://www.w3.org/1999/xlink" x="0px" y="0px"
	 viewBox="0 0 100 100" style="enable-background:new 0 0 100 100;" xml:space="preserve">
<style type="text/css">
	.st0{fill:#A6A6A6;}
</style>
<g>
	<path class="st0" d="M50,0C22.4,0,0,22.4,0,50s22.4,50,50,50s50-22.4,50-50S77.6,0,50,0z M76.9,39.7c0,0.6,0,1.1,0,1.6
		c0,16-12.1,34.5-34.4,34.5c-6.9,0-13.2-2-18.6-5.4c1,0.1,1.9,0.2,2.9,0.2c5.6,0,10.8-2,15-5.2c-5.3-0.1-9.8-3.6-11.3-8.4
		c0.8,0.1,1.5,0.2,2.3,0.2c1.1,0,2.2-0.1,3.2-0.4c-5.5-1.1-9.7-6-9.7-11.9v-0.2c1.7,0.9,3.5,1.4,5.5,1.5c-3.3-2.2-5.4-5.9-5.4-10.1
		c0-2.2,0.6-4.3,1.6-6.1c6,7.3,14.9,12.1,25,12.7c-0.2-0.9-0.3-1.8-0.3-2.8c0-6.7,5.4-12.1,12.1-12.1c3.4,0,6.6,1.4,8.8,3.8
		c2.8-0.6,5.4-1.6,7.7-3c-0.9,2.8-2.8,5.2-5.3,6.7c2.5-0.3,4.8-0.9,7-1.9C81.3,35.9,79.3,38,76.9,39.7z"/>
</g>
</svg>
