<svg version="1.1" id="Layer_1" xmlns="http://www.w3.org/2000/svg" xmlns:xlink="http://www.w3.org/1999/xlink" x="0px" y="0px"
	 viewBox="0 0 100 100" style="enable-background:new 0 0 100 100;" xml:space="preserve">
<style type="text/css">
	.st0{fill:#A6A6A6;}
</style>
<g>
	<path class="st0" d="M49.4,39.4h-1.6c-1,0-1.8,0.8-1.8,1.8v4.5c0,1,0.8,1.8,1.8,1.8h1.6c1,0,1.8-0.8,1.8-1.8v-4.5
		C51.2,40.2,50.4,39.4,49.4,39.4z"/>
	<path class="st0" d="M50,0C22.4,0,0,22.4,0,50s22.4,50,50,50s50-22.4,50-50S77.6,0,50,0z M57.1,67.8c0,1.4-1.1,2.5-2.4,2.5H43.6
		l-6.1,7.6c0,0-1.1,1.6-1.9,1.6c-1.7,0-1.8-1.1-1.8-1.1v-8.1h-8.7c-1.3,0-2.4-1.1-2.4-2.5V46c0-1.4,1.1-2.5,2.4-2.5h5.1v16.7
		c0,1.7,1.3,3,3,3h23.9V67.8z M77.2,56.5c0,1.7-1.3,3-3,3h-5v9.7c0,0,0,1.2-0.9,1.3c-1,0.1-2.4-1.9-2.4-1.9l-7.7-9.1H36.7
		c-1.7,0-3-1.3-3-3V30.3c0-1.7,1.3-3,3-3h37.5c1.7,0,3,1.4,3,3V56.5z"/>
	<path class="st0" d="M63.2,39.4h-1.6c-1,0-1.8,0.8-1.8,1.8v4.5c0,1,0.8,1.8,1.8,1.8h1.6c1,0,1.8-0.8,1.8-1.8v-4.5
		C65,40.2,64.2,39.4,63.2,39.4z"/>
</g>
</svg>
