<svg version="1.1" id="Layer_1" xmlns="http://www.w3.org/2000/svg" xmlns:xlink="http://www.w3.org/1999/xlink" x="0px" y="0px"
	 viewBox="0 0 100 100" style="enable-background:new 0 0 100 100;" xml:space="preserve">
<style type="text/css">
	.st0{fill:#A6A6A6;}
</style>
<g>
	<path class="st0" d="M50,0C22.4,0,0,22.4,0,50s22.4,50,50,50s50-22.4,50-50S77.6,0,50,0z M50.1,66.7c-1.5,0-3-0.1-4.4-0.3L35.9,73
		c-0.1,0.1-0.3,0.2-0.4,0.2c-0.2,0-0.4-0.1-0.5-0.2c-0.2-0.2-0.3-0.4-0.2-0.7l2.3-8.5c-6.7-3.4-11.2-9.4-11.2-16.2
		c0-10.5,10.8-19.1,24.2-19.1c13.4,0,24.2,8.5,24.2,19.1C74.3,58.1,63.5,66.7,50.1,66.7z"/>
</g>
</svg>
