<svg xmlns="http://www.w3.org/2000/svg" xmlns:xlink="http://www.w3.org/1999/xlink" version="1.1" class="can-badge can-alert has-solid " viewBox="0 0 36 36" preserveAspectRatio="xMidYMid meet" focusable="false" role="img" width="20" height="20" fill="#cc5b95"><path d="M31.42,9.09l-13-6a1,1,0,0,0-.84,0l-13,6A1,1,0,0,0,4,10V27a1,1,0,0,0,.58.91l13,6a1,1,0,0,0,.84,0l13-6A1,1,0,0,0,32,27V10A1,1,0,0,0,31.42,9.09ZM18,5.1,28.61,10,18,14.9,7.39,10ZM6,11.56l11,5.08v14.8L6,26.36ZM19,31.44V16.64l11-5.08v14.8Z" class="clr-i-outline clr-i-outline-path-1"/><path d="M30,15.53V26.36L19,31.44V16.64l2.57-1.19a3.67,3.67,0,0,1-2.11-1.22L18,14.9,7.39,10,18,5.1l3.08,1.42,1-1.74L18.42,3.09a1,1,0,0,0-.84,0l-13,6A1,1,0,0,0,4,10V27a1,1,0,0,0,.58.91l13,6a1,1,0,0,0,.84,0l13-6A1,1,0,0,0,32,27V15.53ZM17,31.44,6,26.36V11.56l11,5.08Z" class="clr-i-outline--alerted clr-i-outline-path-1--alerted" style="display:none"/><path d="M26.87,1.26l-5.72,9.91a1.28,1.28,0,0,0,1.1,1.92H33.7a1.28,1.28,0,0,0,1.1-1.92L29.08,1.26A1.28,1.28,0,0,0,26.87,1.26Z" class="clr-i-outline--alerted clr-i-outline-path-2--alerted clr-i-alert" style="display:none"/><path d="M30,13.5V26.36L19,31.44V16.64l8.08-3.73a7.57,7.57,0,0,1-2-1.27L18,14.9,7.39,10,18,5.1l4.61,2.13A7.12,7.12,0,0,1,22.5,6a8,8,0,0,1,.07-1L18.42,3.09a1,1,0,0,0-.84,0l-13,6A1,1,0,0,0,4,10V27a1,1,0,0,0,.58.91l13,6a1,1,0,0,0,.84,0l13-6A1,1,0,0,0,32,27V13.22A7.37,7.37,0,0,1,30,13.5ZM17,31.44,6,26.36V11.56l11,5.08Z" class="clr-i-outline--badged clr-i-outline-path-1--badged" style="display:none"/><path d="M31.42,9.09l-13-6a1,1,0,0,0-.84,0l-13,6A1,1,0,0,0,4,10V27a1,1,0,0,0,.58.91l13,6a1,1,0,0,0,.84,0l13-6A1,1,0,0,0,32,27V10A1,1,0,0,0,31.42,9.09ZM18,14.9,7.39,10,18,5.1,28.61,10ZM30,26.36,19,31.44V16.64l11-5.08Z" class="clr-i-solid clr-i-solid-path-1" style="display:none"/><path d="M30,15.38v11L19,31.44V16.64l2.79-1.29a3.68,3.68,0,0,1-2.25-1.16L18,14.9,7.39,10,18,5.1l3,1.39,1-1.75L18.42,3.09a1,1,0,0,0-.84,0l-13,6A1,1,0,0,0,4,10V27a1,1,0,0,0,.58.91l13,6a1,1,0,0,0,.84,0l13-6A1,1,0,0,0,32,27V15.38Z" class="clr-i-solid--alerted clr-i-solid-path-1--alerted" style="display:none"/><path d="M26.85,1.12,21.13,11a1.27,1.27,0,0,0,1.1,1.91H33.68A1.27,1.27,0,0,0,34.78,11L29.06,1.12A1.28,1.28,0,0,0,26.85,1.12Z" class="clr-i-solid--alerted clr-i-solid-path-2--alerted clr-i-alert" style="display:none"/><path d="M30,13.5V26.36L19,31.44V16.64l8.08-3.73a7.57,7.57,0,0,1-2-1.27L18,14.9,7.39,10,18,5.1l4.61,2.13A7.12,7.12,0,0,1,22.5,6a8,8,0,0,1,.07-1L18.42,3.09a1,1,0,0,0-.84,0l-13,6A1,1,0,0,0,4,10V27a1,1,0,0,0,.58.91l13,6a1,1,0,0,0,.84,0l13-6A1,1,0,0,0,32,27V13.22A7.37,7.37,0,0,1,30,13.5Z" class="clr-i-solid--badged clr-i-solid-path-1--badged" style="display:none"/><circle cx="30" cy="6" r="5" class="clr-i-outline--badged clr-i-outline-path-2--badged clr-i-badge" style="display:none"/><circle cx="30" cy="6" r="5" class="clr-i-solid--badged clr-i-solid-path-2--badged clr-i-badge" style="display:none"/></svg>