<svg xmlns="http://www.w3.org/2000/svg" xmlns:xlink="http://www.w3.org/1999/xlink" version="1.1" class="can-badge has-solid " viewBox="0 0 36 36" preserveAspectRatio="xMidYMid meet" focusable="false" role="img" width="20" height="20" fill="#efefef"><path d="M29.29,5H27V7h2V32H7V7H9V5H7A1.75,1.75,0,0,0,5,6.69V32.31A1.7,1.7,0,0,0,6.71,34H29.29A1.7,1.7,0,0,0,31,32.31V6.69A1.7,1.7,0,0,0,29.29,5Z" class="clr-i-outline clr-i-outline-path-1"/><path d="M26,7.33A2.34,2.34,0,0,0,23.67,5H21.87a4,4,0,0,0-7.75,0H12.33A2.34,2.34,0,0,0,10,7.33V11H26ZM24,9H12V7.33A.33.33,0,0,1,12.33,7H16V6a2,2,0,0,1,4,0V7h3.67a.33.33,0,0,1,.33.33Z" class="clr-i-outline clr-i-outline-path-2"/><path d="M23.13,9H12V7.33A.33.33,0,0,1,12.33,7H16V6a2,2,0,0,1,4,0V7h2.57a7.52,7.52,0,0,1-.07-1,7.52,7.52,0,0,1,.07-1h-.7a4,4,0,0,0-7.75,0H12.33A2.34,2.34,0,0,0,10,7.33V11H24.42A7.5,7.5,0,0,1,23.13,9Z" class="clr-i-outline--badged clr-i-outline-path-5--badged" style="display:none"/><path d="M30,13.5a7.52,7.52,0,0,1-1-.07V32H7V7H9V5H7A1.75,1.75,0,0,0,5,6.69V32.31A1.7,1.7,0,0,0,6.71,34H29.29A1.7,1.7,0,0,0,31,32.31V13.43A7.52,7.52,0,0,1,30,13.5Z" class="clr-i-outline--badged clr-i-outline-path-6--badged" style="display:none"/><path d="M29.29,5H22.17a4.45,4.45,0,0,0-4.11-3A4.46,4.46,0,0,0,14,5H7A1.75,1.75,0,0,0,5,6.69V32.31A1.7,1.7,0,0,0,6.71,34H29.29A1.7,1.7,0,0,0,31,32.31V6.69A1.7,1.7,0,0,0,29.29,5Zm-18,3a1,1,0,0,1,1-1h3.44V6.31a2.31,2.31,0,1,1,4.63,0V7h3.44a1,1,0,0,1,1,1v2H11.31ZM25,28H11V26H25Zm0-4H11V22H25Zm0-4H11V18H25Zm0-4H11V14H25Z" class="clr-i-solid clr-i-solid-path-1" style="display:none"/><path d="M30,13.5A7.49,7.49,0,0,1,23.66,10H11.31V8a1,1,0,0,1,1-1h3.44V6.31a2.31,2.31,0,1,1,4.63,0V7h2.19a7.54,7.54,0,0,1-.07-1,7.52,7.52,0,0,1,.07-1h-.4a4.45,4.45,0,0,0-4.11-3A4.46,4.46,0,0,0,14,5H7A1.75,1.75,0,0,0,5,6.69V32.31A1.7,1.7,0,0,0,6.71,34H29.29A1.7,1.7,0,0,0,31,32.31V13.43A7.52,7.52,0,0,1,30,13.5ZM25,28H11V26H25Zm0-4H11V22H25Zm0-4H11V18H25Zm0-4H11V14H25Z" class="clr-i-solid--badged clr-i-solid-path-1--badged" style="display:none"/><rect x="11" y="14" width="14" height="2" class="clr-i-outline clr-i-outline-path-3"/><rect x="11" y="18" width="14" height="2" class="clr-i-outline clr-i-outline-path-4"/><rect x="11" y="22" width="14" height="2" class="clr-i-outline clr-i-outline-path-5"/><rect x="11" y="26" width="14" height="2" class="clr-i-outline clr-i-outline-path-6"/><rect x="11" y="14" width="14" height="2" class="clr-i-outline--badged clr-i-outline-path-1--badged" style="display:none"/><rect x="11" y="18" width="14" height="2" class="clr-i-outline--badged clr-i-outline-path-2--badged" style="display:none"/><rect x="11" y="22" width="14" height="2" class="clr-i-outline--badged clr-i-outline-path-3--badged" style="display:none"/><rect x="11" y="26" width="14" height="2" class="clr-i-outline--badged clr-i-outline-path-4--badged" style="display:none"/><circle cx="30" cy="6" r="5" class="clr-i-outline--badged clr-i-outline-path-7--badged clr-i-badge" style="display:none"/><circle cx="30" cy="6" r="5" class="clr-i-solid--badged clr-i-solid-path-2--badged clr-i-badge" style="display:none"/></svg>