<svg xmlns="http://www.w3.org/2000/svg" xmlns:xlink="http://www.w3.org/1999/xlink" version="1.1" class="can-badge can-alert has-solid " viewBox="0 0 36 36" preserveAspectRatio="xMidYMid meet" focusable="false" role="img" width="20" height="20" fill="#f08abe"><path d="M34,11.12V6.58a4.5,4.5,0,0,0-4.5-4.5h-16A4.5,4.5,0,0,0,9,6.58v23a2.5,2.5,0,1,1-5,0V26H7.19V24H2v5.5A4.5,4.5,0,0,0,6.5,34H25.58a4.5,4.5,0,0,0,4.5-4.5V13.13h-2V29.54a2.5,2.5,0,0,1-2.5,2.5H10.24a4.47,4.47,0,0,0,.76-2.5v-23a2.5,2.5,0,0,1,5,0v4.54Zm-4.5-7A2.5,2.5,0,0,1,32,6.58V9.12H18V6.58a4.48,4.48,0,0,0-.76-2.5Z" class="clr-i-outline clr-i-outline-path-1"/><path d="M28.08,15.4V29.54a2.5,2.5,0,0,1-2.5,2.5H10.24a4.47,4.47,0,0,0,.76-2.5v-23a2.5,2.5,0,0,1,5,0v4.54h2.61A3.66,3.66,0,0,1,19,9.89l.44-.76H18V6.58a4.48,4.48,0,0,0-.76-2.5H22.4l1.15-2H13.5A4.5,4.5,0,0,0,9,6.58v23a2.5,2.5,0,1,1-5,0V26H7.19V24H2v5.5A4.5,4.5,0,0,0,6.5,34H25.58a4.5,4.5,0,0,0,4.5-4.5V15.4Z" class="clr-i-outline--alerted clr-i-outline-path-1--alerted" style="display:none"/><path d="M26.85,1.14,21.13,11A1.28,1.28,0,0,0,22.23,13H33.68A1.28,1.28,0,0,0,34.78,11L29.06,1.14A1.28,1.28,0,0,0,26.85,1.14Z" class="clr-i-outline--alerted clr-i-outline-path-2--alerted clr-i-alert" style="display:none"/><path d="M30,13.5a7.49,7.49,0,0,1-1.92-.26v16.3a2.5,2.5,0,0,1-2.5,2.5H10.24a4.47,4.47,0,0,0,.76-2.5v-23a2.5,2.5,0,0,1,5,0v4.54h8.54a7.5,7.5,0,0,1-1.35-2H18V6.58a4.48,4.48,0,0,0-.76-2.5h5.52a7.44,7.44,0,0,1,.86-2H13.5A4.5,4.5,0,0,0,9,6.58v23a2.5,2.5,0,1,1-5,0V26H7.19V24H2v5.5A4.5,4.5,0,0,0,6.5,34H25.58a4.5,4.5,0,0,0,4.5-4.5v-16Z" class="clr-i-outline--badged clr-i-outline-path-1--badged" style="display:none"/><path d="M34,11.12V6.58a4.5,4.5,0,0,0-4.5-4.5h-16A4.5,4.5,0,0,0,9,6.58V24H2v5.5A4.5,4.5,0,0,0,6.5,34H25.58a4.5,4.5,0,0,0,4.5-4.5V13.13h-2V29.54a2.5,2.5,0,0,1-2.5,2.5H10.24a4.47,4.47,0,0,0,.76-2.5v-23a2.5,2.5,0,0,1,5,0v4.54Z" class="clr-i-solid clr-i-solid-path-1" style="display:none"/><path d="M28.08,15.4V29.54a2.5,2.5,0,0,1-2.5,2.5H10.24a4.47,4.47,0,0,0,.76-2.5v-23a2.5,2.5,0,0,1,5,0v4.54h2.61A3.66,3.66,0,0,1,19,9.89l4.51-7.8H13.5A4.5,4.5,0,0,0,9,6.58V24H2v5.5A4.5,4.5,0,0,0,6.5,34H25.58a4.5,4.5,0,0,0,4.5-4.5V15.4Z" class="clr-i-solid--alerted clr-i-solid-path-1--alerted" style="display:none"/><path d="M26.85,1.14,21.13,11A1.28,1.28,0,0,0,22.23,13H33.68A1.28,1.28,0,0,0,34.78,11L29.06,1.14A1.28,1.28,0,0,0,26.85,1.14Z" class="clr-i-solid--alerted clr-i-solid-path-2--alerted clr-i-alert" style="display:none"/><path d="M30,13.5a7.49,7.49,0,0,1-1.92-.26v16.3a2.5,2.5,0,0,1-2.5,2.5H10.24a4.47,4.47,0,0,0,.76-2.5v-23a2.5,2.5,0,0,1,5,0v4.54h8.54a7.46,7.46,0,0,1-.92-9H13.5A4.5,4.5,0,0,0,9,6.58V24H2v5.5A4.5,4.5,0,0,0,6.5,34H25.58a4.5,4.5,0,0,0,4.5-4.5v-16Z" class="clr-i-solid--badged clr-i-solid-path-1--badged" style="display:none"/><circle cx="30" cy="6" r="5" class="clr-i-outline--badged clr-i-outline-path-2--badged clr-i-badge" style="display:none"/><circle cx="30" cy="6" r="5" class="clr-i-solid--badged clr-i-solid-path-2--badged clr-i-badge" style="display:none"/></svg>